<?xml version="1.0" encoding="UTF-8"?>
<svg width="963px" height="466px" viewBox="0 0 963 466" version="1.1" xmlns="http://www.w3.org/2000/svg" xmlns:xlink="http://www.w3.org/1999/xlink">
    <!-- Generator: Sketch 48.2 (47327) - http://www.bohemiancoding.com/sketch -->
    <title>artisfy-logo</title>
    <desc>Created with Sketch.</desc>
    <defs></defs>
    <g id="Page-1" stroke="none" stroke-width="1" fill="none" fill-rule="evenodd">
        <g id="artisfy-logo" fill-rule="nonzero">
            <g id="Artboard-2" transform="translate(-2.000000, -2.000000)">
                <polygon id="Shape" fill="#E51675" points="947.8 254.88 919.11 355.55 839.09 436.29 751.78 348.99 704.49 345.91 693.24 335.16 657.95 355.55 636.11 333.53 626.74 355.55 598.32 353.24 545.82 300.7 528.44 348.66 477.28 353.63 419.11 295.32 421.52 288.66 409.11 288.66 377.56 379.47 0 0.77 694.17 1"></polygon>
                <path d="M947.8,254.88 L947.55,254.98 C947.55,254.98 947.55,254.9 947.55,254.86 L923.74,258.72 C923.74,271.97 915.33,308.15 915.33,308.15 L900.78,270.63 L883.3,253.44 C883.3,253.44 867.63,269.02 863.85,270.44 L848.46,255.08 L846.32,255.15 C847.07,249.6 849.64,244.44 855.57,243.22 C857.22154,242.902441 858.91846,242.902441 860.57,243.22 C865.36,244.57 868.35,249.94 868.35,249.94 L874.25,247.81 L890.73,241.87 L891.14,241.71 L891.14,241.65 C891.14,241.65 890.7,240.65 890.29,239.83 C889.193846,237.296378 887.871845,234.866573 886.34,232.57 C885.089408,230.303162 883.7001,228.11567 882.18,226.02 C877.322929,219.773274 871.551328,214.294974 865.06,209.77 C854.73,202.31 846.7,201.98 846.7,201.98 L819.61,210 L809.11,259.37 L791.33,275.56 L789.47,277.56 L804.33,292.46 L804.33,290.73 C804.63,292.08 806.53,294.37 805.83,295.55 L804.36,353.27 L804.43,354.01 L803.49,354.7 L820.49,371.64 L846.08,371.64 L846.08,366.23 C846.08,339.02 846.43,313.64 846.45,294.64 L865.08,294.64 L865.08,274.53 L901.33,360.66 C889.4,385.59 849.49,434.1 849.49,434.1 L839.07,436.3 L856.07,453.3 L876.45,467.95 C929,413.21 961,350.66 964.74,271.66 L947.8,254.88 Z" id="Shape" fill="#FFFFFF"></path>
                <path d="M763.75,291.15 C764.15,291.35 770.45,294.23 774.83,302.49 L796.76,297.18 L796.54,296.18 C795.353076,290.623967 792.990095,285.386536 789.61,280.82 L789.4,280.55 L789.25,280.36 C784.089931,273.919531 778.403708,267.918893 772.25,262.42 C767.138893,257.730598 760.932673,254.398838 754.2,252.73 C754.2,252.73 703.57,272.07 701.1,272.49 L684.53,255.94 C684.53,255.94 658.95,268.74 658.76,268.72 L659.04,268.72 L645.28,254.91 L645.12,255.11 L641.12,256.64 L641.12,240.72 L624.12,223.78 L623.93,224.09 C623.93,224.44 605.04,258.5 605.04,258.5 C605.04,258.5 584.19,266.5 582.39,267.38 L569.62,254.72 L567.5,257.45 C566.78,257.92 544.81,253.09 544.81,253.09 L537.5,246.09 L512.43,253.81 L511.87,347.62 C502.820565,320.417779 498.201671,291.937978 498.19,263.27 C498.435679,241.800709 500.499726,220.390821 504.36,199.27 C504.36,199.22 504.36,199.2 504.36,199.2 L504.54,198.05 L487.67,181.05 C487.67,181.05 465.78,171.38 465.11,170.52 C413.25,224.52 382.61,302.69 377.56,379.39 C377.56,379.39 377.56,379.48 377.56,379.53 L377.64,379.47 L394.56,396.53 L420.8,396.6 C420.8,396.27 420.8,395.67 420.8,395.67 C420.61,392.67 420.52,389.47 420.5,386.38 C420.5,364.02 424.83,339.67 432.15,316.67 L463.91,316.67 C467.350013,329.346039 471.818158,341.720394 477.27,353.67 L494.27,370.67 L522.79,370.82 L522.19,369.65 C520.2437,366.158002 518.510532,362.551409 517,358.85 L527.66,369.66 L554.1,369.66 L554.1,304.66 C558.21,292.66 569.2,289.33 580.33,297.49 L584.61,279.69 L600.79,296.13 L601.35,344.54 L598.55,353 L598.32,353.27 L615.81,370.69 L641.27,370.69 L641.27,369.69 L641.17,293.69 L661.11,293.69 L663.77,350.6 L657.95,355.6 L675.12,372.66 L701.12,372.66 L701.12,340.32 C703.12,341.94 703.85,345.58 705.29,346.98 C705.62,347.32 721.15,362.65 721.49,362.98 C729.96,371.83 742.74,376.49 757.14,376.49 C779,376.49 800.58,366.65 800.58,341.59 C800.58,341.41 800.58,341.24 800.58,341.06 C800.58,340.88 800.58,340.75 800.58,340.59 C800.58,331.39 797.43,324.99 792.58,320.4 C792.26,320.06 777.92,305.72 777.58,305.4 C769.9,297.3 756.66,294.71 745.58,292.53 C745.38,292.53 745.35,292.3 745.16,292.27 C748.91112,290.680126 752.927303,289.80837 757,289.7 C758.710902,289.612392 760.423209,289.84296 762.05,290.38 L763.75,291.15 Z M447.53,277.66 C450.14,271.66 452.9,266.66 455.77,261.38 C455.96,266.99 456.32,271.66 456.83,277.66 L447.53,277.66 Z M757.11,340.16 C757.11,340.16 743.94,339.49 743.22,339.02 L743.08,339.02 C743.08,339.02 743.72,336.41 741.28,336.4 C738.052387,336.400173 734.840838,335.945708 731.74,335.05 C728.225059,334.226328 724.972627,332.534788 722.28,330.13 C719.629388,327.758543 717.278619,325.07195 715.28,322.13 L712.35,325.44 L712.43,326.12 L701.1,329.23 L701.1,289.37 C703.1,292.2 700.1,295.04 706.39,301.53 C706.71,301.87 707.15,302.21 707.49,302.53 C707.83,302.85 708.2,303.21 708.54,303.53 C708.88,303.85 709.22,304.21 709.54,304.53 C709.86,304.85 710.21,305.21 710.54,305.53 C710.87,305.85 711.2,306.21 711.54,306.53 C711.88,306.85 712.2,307.21 712.54,307.53 C712.88,307.85 713.2,308.21 713.54,308.53 C713.88,308.85 714.2,309.21 714.54,309.53 C714.88,309.85 715.2,310.21 715.54,310.53 C715.88,310.85 716.2,311.21 716.54,311.53 C716.88,311.85 717.2,312.21 717.54,312.53 C717.88,312.85 718.2,313.21 718.54,313.53 C718.88,313.85 719.2,314.21 719.54,314.53 C719.88,314.85 720.2,315.21 720.54,315.53 C720.88,315.85 721.2,316.21 721.54,316.53 C721.88,316.85 722.2,317.21 722.54,317.53 C730.8,326.32 745.39,328.05 757.22,330.15 L757.09,330.15 C764.11,330.2 757.11,340.16 757.11,340.16 Z" id="Shape" fill="#FFFFFF"></path>
                <polyline id="Shape" fill="#FFFFFF" points="677.11 248.66 703.11 248.66 703.29 223.41 686.18 206.3 681.33 207.09 682.02 207.78 671.22 210.57 665.36 212.49 664.75 220.95 663.05 219.17 660.43 232.04 677.11 248.66"></polyline>
                <path d="M803.83,277.57 L789.46,277.57 L789.46,255.09 L803.92,255.09 L803.97,241.83 C803.97,218.62 813.14,203.45 833.74,201.58 C852.42,199.89 866.31,206.85 873.74,224.84 L851.36,232.91 C849.04,226.76 843.79,225.38 838.54,226.45 C830.98,228 829.74,233.37 829.54,241.82 C829.54,243.92 829.47,248.51 829.45,255.08 L848.38,255.08 L848.38,277.56 L829.38,277.56 C829.38,298.12 829.38,325.42 829.38,354.7 L803.52,354.7 L803.83,277.57 Z" id="Combined-Shape" fill="#000000"></path>
                <path d="M740.13,251 C767.67,251 776.75,267.85 779.54,280.26 L757.83,285.53 C756.13,281.84 753.83,272.53 740.42,273.14 C729.49,273.14 723.24,276.52 723.24,282.06 C723.24,297.59 783.57,284.37 783.57,324.65 C783.57,349.71 761.99,359.55 740.13,359.55 C718.27,359.55 700.13,348.82 695.13,328.96 L715.25,322.19 C720.88,332.37 726.18,336.49 740.09,336.49 C750.6,336.49 758.83,333.11 758.83,324.49 C758.83,304.66 699.06,322.95 699.06,282.06 C699.11,266.64 712.59,251 740.13,251 Z" id="path1_fill" fill="#000000"></path>
                <polygon id="path2_fill" fill="#000000" points="686.38 206.3 660.43 206.3 660.43 232.04 685.76 232.04"></polygon>
                <polygon id="path3_fill" fill="#000000" points="684.51 255.92 657.95 255.92 657.95 355.55 684.51 355.55"></polygon>
                <polygon id="Combined-Shape-2" fill="#000000" points="598.34 277 581 277 581 254.85 598.32 254.85 598.32 230.49 624.06 223.67 624.06 254.85 645.19 254.85 645.19 277 624.09 277 624.19 353.22 598.32 353.22"></polygon>
                <path d="M537.49,259.53 L537.49,246 L511.55,253.38 L511.55,353 L537.49,353 L537.49,287.81 C541.6,276 552.3,272.58 563.43,280.74 L569.61,254.6 C554.81,245 543.93,249.48 537.49,259.53 Z" id="Shape" fill="#000000"></path>
                <path d="M896.52,356.85 L859.11,260.94 L883.28,253.44 L910.11,322.73 C917.11,300.73 921.23,277.73 921.23,254.88 L947.8,254.88 C944.09,333.29 912,396.32 859.47,451 L839.09,436.24 C861.07,415.94 881.53,388.19 896.52,356.85 Z" id="Combined-Shape-3" fill="#000000"></path>
                <path d="M415.15,299.6 C406.71,326.51 402.24,354.19 403.8,379.37 L377.56,379.37 C377.56,300.66 414.01,220.72 466.89,166.59 L487.67,181 C472.23,267.71 488.08,321 505.19,353.77 L477.27,353.61 C469.354596,336.374026 463.558943,318.241624 460.01,299.61 L415.15,299.6 Z M423.15,277.27 L456.85,277.27 C454.880777,255.975893 455.266442,234.529538 458,213.32 C443.825766,233.143365 432.116377,254.617853 423.13,277.27 L423.15,277.27 Z" id="Combined-Shape-4" fill="#000000"></path>
            </g>
        </g>
    </g>
</svg>