<?xml version="1.0" encoding="UTF-8"?>
<svg width="305px" height="342px" viewBox="0 0 305 342" version="1.1" xmlns="http://www.w3.org/2000/svg" xmlns:xlink="http://www.w3.org/1999/xlink">
    <!-- Generator: Sketch 48.2 (47327) - http://www.bohemiancoding.com/sketch -->
    <title>reaching-hands</title>
    <desc>Created with Sketch.</desc>
    <defs></defs>
    <g id="Page-1" stroke="none" stroke-width="1" fill="none" fill-rule="evenodd">
        <g id="reaching-hands">
            <g id="Page-1">
                <polygon id="Fill-1" fill="#E8AA72" points="176.2486 20.9943 176.2486 27.9943 176.2486 34.9913 176.2486 41.9913 176.2486 48.9753 176.2486 55.9733 176.2486 63.0173 169.2216 63.0173 162.2566 63.0173 162.2566 55.9733 155.2296 55.9733 155.2296 63.0173 155.2296 70.0163 148.2616 70.0163 148.2616 76.9993 141.2206 76.9993 141.2206 83.9983 134.2686 83.9983 134.2686 90.9973 134.2686 97.9953 141.2206 97.9953 141.2206 104.9943 141.2206 111.9933 141.2206 118.9923 148.2616 118.9923 155.2296 118.9923 162.2566 118.9923 169.2216 118.9923 176.2486 118.9923 176.2486 111.9933 176.2486 104.9943 176.2486 97.9953 176.2486 90.9973 183.2156 90.9973 183.2156 83.9983 183.2156 76.9993 183.2156 70.0163 183.2156 63.0173 183.2156 55.9733 183.2156 48.9753 183.2156 41.9913 183.2156 34.9913 183.2156 27.9943 183.2156 20.9943"></polygon>
                <polygon id="Fill-2" fill="#E8AA72" points="155.2292 41.9909 155.2292 34.9919 148.2612 34.9919 148.2612 41.9909 148.2612 48.9749 155.2292 48.9749"></polygon>
                <polygon id="Fill-3" fill="#E8AA72" points="141.2201 41.9909 141.2201 34.9919 141.2201 27.9939 141.2201 20.9939 141.2201 13.9969 134.2691 13.9969 134.2691 20.9939 134.2691 27.9939 134.2691 34.9919 134.2691 41.9909 134.2691 48.9749 134.2691 55.9739 141.2201 55.9739 141.2201 48.9749"></polygon>
                <polygon id="Fill-4" fill="#E8AA72" points="169.2216 48.9753 169.2216 41.9913 169.2216 34.9923 162.2566 34.9923 162.2566 41.9913 162.2566 48.9753 162.2566 55.9733 169.2216 55.9733"></polygon>
                <polygon id="Fill-5" fill="#E8AA72" points="141.2201 76.9996 141.2201 70.0166 148.2611 70.0166 148.2611 63.0176 148.2611 55.9736 141.2201 55.9736 141.2201 63.0176 134.2691 63.0176 134.2691 70.0166 127.2281 70.0166 127.2281 76.9996 127.2281 83.9976 134.2691 83.9976 134.2691 76.9996"></polygon>
                <polygon id="Fill-6" fill="#FFFFFF" points="162.256 139.988 169.221 139.988 169.221 132.989 162.256 132.989"></polygon>
                <polygon id="Fill-7" fill="#FFFFFF" points="148.261 139.988 155.229 139.988 155.229 132.989 148.261 132.989"></polygon>
                <path d="M162.257,139.988 L169.222,139.988 L169.222,132.989 L162.257,132.989 L162.257,139.988 Z M148.261,139.988 L155.229,139.988 L155.229,132.989 L148.261,132.989 L148.261,139.988 Z M169.222,125.99 L162.256,125.99 L155.229,125.99 L148.261,125.99 L141.22,125.99 L141.22,132.989 L141.22,139.988 L141.22,146.985 L148.261,146.985 L155.229,146.985 L162.256,146.985 L169.222,146.985 L176.249,146.985 L176.249,139.988 L176.249,132.989 L176.249,125.99 L169.222,125.99 Z" id="Fill-8" fill="#FC6E51"></path>
                <polygon id="Fill-9" fill="#FDCA00" points="169.2216 153.9837 162.2566 153.9837 155.2296 153.9837 148.2616 153.9837 141.2196 153.9837 141.2196 160.9857 141.2196 167.9827 141.2196 174.9797 141.2196 181.9817 141.2196 188.9777 141.2196 195.9607 141.2196 202.9597 141.2196 210.0057 141.2196 217.0017 141.2196 223.9867 141.2196 230.9857 141.2196 237.9847 141.2196 244.9807 141.2196 251.9797 141.2196 320.9937 141.2196 327.9927 141.2196 334.9917 141.2196 341.9907 148.2616 341.9907 155.2296 341.9907 162.2566 341.9907 169.2216 341.9907 176.2486 341.9907 176.2486 334.9917 176.2486 327.9927 176.2486 320.9937 176.2486 251.9797 176.2486 244.9807 176.2486 237.9847 176.2486 230.9857 176.2486 223.9867 176.2486 217.0017 176.2486 210.0057 176.2486 202.9597 176.2486 195.9607 176.2486 188.9777 176.2486 181.9817 176.2486 174.9797 176.2486 167.9827 176.2486 160.9857 176.2486 153.9837"></polygon>
                <polygon id="Fill-10" fill="#212121" points="134.269 13.996 141.22 13.996 141.22 6.998 134.269 6.998"></polygon>
                <polygon id="Fill-11" fill="#212121" points="176.248 20.995 183.215 20.995 183.215 13.997 176.248 13.997"></polygon>
                <polygon id="Fill-12" fill="#212121" points="183.2153 20.9943 183.2153 27.9943 183.2153 34.9913 183.2153 41.9913 183.2153 48.9753 183.2153 55.9733 183.2153 63.0173 183.2153 70.0163 183.2153 76.9993 183.2153 83.9983 183.2153 90.9973 190.2553 90.9973 190.2553 83.9983 190.2553 76.9993 190.2553 70.0163 190.2553 63.0173 190.2553 55.9733 190.2553 48.9753 190.2553 41.9913 190.2553 34.9913 190.2553 27.9943 190.2553 20.9943"></polygon>
                <path d="M155.2292,34.9918 L155.2292,41.9908 L155.2292,48.9748 L148.2612,48.9748 L148.2612,41.9908 L148.2612,34.9918 L155.2292,34.9918 Z M141.2202,27.9938 L141.2202,34.9918 L141.2202,41.9908 L141.2202,48.9748 L141.2202,55.9738 L148.2612,55.9738 L148.2612,63.0178 L148.2612,70.0168 L155.2292,70.0168 L155.2292,63.0178 L155.2292,55.9738 L162.2562,55.9738 L162.2562,48.9748 L162.2562,41.9908 L162.2562,34.9918 L169.2212,34.9918 L169.2212,41.9908 L169.2212,48.9748 L169.2212,55.9738 L162.2562,55.9738 L162.2562,63.0178 L169.2212,63.0178 L176.2482,63.0178 L176.2482,55.9738 L176.2482,48.9748 L176.2482,41.9908 L176.2482,34.9918 L176.2482,27.9938 L176.2482,20.9948 L169.2212,20.9948 L169.2212,27.9938 L162.2562,27.9938 L155.2292,27.9938 L148.2612,27.9938 L148.2612,20.9948 L148.2612,13.9968 L141.2202,13.9968 L141.2202,20.9948 L141.2202,27.9938 Z" id="Fill-13" fill="#212121"></path>
                <polygon id="Fill-14" fill="#212121" points="134.2688 63.0177 141.2198 63.0177 141.2198 55.9737 134.2688 55.9737 134.2688 48.9757 134.2688 41.9907 134.2688 34.9917 134.2688 27.9937 134.2688 20.9947 134.2688 13.9967 127.2278 13.9967 127.2278 20.9947 127.2278 27.9937 127.2278 34.9917 127.2278 41.9907 127.2278 48.9757 127.2278 55.9737 127.2278 63.0177 127.2278 70.0167 134.2688 70.0167"></polygon>
                <polygon id="Fill-15" fill="#212121" points="141.22 77 148.261 77 148.261 70.017 141.22 70.017"></polygon>
                <polygon id="Fill-16" fill="#212121" points="134.269 83.998 141.22 83.998 141.22 77 134.269 77"></polygon>
                <polygon id="Fill-17" fill="#212121" points="134.2688 83.998 127.2278 83.998 127.2278 77 127.2278 70.017 120.2748 70.017 120.2748 77 120.2748 83.998 120.2748 90.997 127.2278 90.997 127.2278 97.995 134.2688 97.995 134.2688 90.997"></polygon>
                <path d="M176.2488,90.9972 L176.2488,97.9952 L176.2488,104.9952 L176.2488,111.9932 L176.2488,118.9922 L169.2218,118.9922 L162.2568,118.9922 L155.2288,118.9922 L148.2618,118.9922 L141.2198,118.9922 L141.2198,111.9932 L141.2198,104.9952 L141.2198,97.9952 L134.2688,97.9952 L134.2688,104.9952 L134.2688,111.9932 L134.2688,118.9922 L134.2688,125.9892 L134.2688,132.9892 L134.2688,139.9892 L134.2688,146.9842 L134.2688,153.9842 L134.2688,160.9862 L134.2688,167.9822 L134.2688,174.9802 L134.2688,181.9822 L134.2688,188.9772 L134.2688,195.9602 L134.2688,202.9602 L134.2688,210.0062 L134.2688,217.0022 L134.2688,223.9862 L134.2688,230.9862 L134.2688,237.9842 L134.2688,244.9812 L134.2688,251.9802 L134.2688,320.9942 L134.2688,327.9922 L134.2688,334.9922 L134.2688,341.9912 L141.2198,341.9912 L141.2198,334.9922 L141.2198,327.9922 L141.2198,320.9942 L141.2198,251.9802 L141.2198,244.9812 L141.2198,237.9842 L141.2198,230.9862 L141.2198,223.9862 L141.2198,217.0022 L141.2198,210.0062 L141.2198,202.9602 L141.2198,195.9602 L141.2198,188.9772 L141.2198,181.9822 L141.2198,174.9802 L141.2198,167.9822 L141.2198,160.9862 L141.2198,153.9842 L148.2618,153.9842 L155.2288,153.9842 L162.2568,153.9842 L169.2218,153.9842 L176.2488,153.9842 L176.2488,160.9862 L176.2488,167.9822 L176.2488,174.9802 L176.2488,181.9822 L176.2488,188.9772 L176.2488,195.9602 L176.2488,202.9602 L176.2488,210.0062 L176.2488,217.0022 L176.2488,223.9862 L176.2488,230.9862 L176.2488,237.9842 L176.2488,244.9812 L176.2488,251.9802 L176.2488,320.9942 L176.2488,327.9922 L176.2488,334.9922 L176.2488,341.9912 L183.2158,341.9912 L183.2158,334.9922 L183.2158,327.9922 L183.2158,320.9942 L183.2158,251.9802 L183.2158,244.9812 L183.2158,237.9842 L183.2158,230.9862 L183.2158,223.9862 L183.2158,217.0022 L183.2158,210.0062 L183.2158,202.9602 L183.2158,195.9602 L183.2158,188.9772 L183.2158,181.9822 L183.2158,174.9802 L183.2158,167.9822 L183.2158,160.9862 L183.2158,153.9842 L183.2158,146.9842 L183.2158,139.9892 L183.2158,132.9892 L183.2158,125.9892 L183.2158,118.9922 L183.2158,111.9932 L183.2158,104.9952 L183.2158,97.9952 L183.2158,90.9972 L176.2488,90.9972 Z M141.2198,139.9892 L141.2198,132.9892 L141.2198,125.9892 L148.2618,125.9892 L155.2288,125.9892 L162.2568,125.9892 L169.2218,125.9892 L176.2488,125.9892 L176.2488,132.9892 L176.2488,139.9892 L176.2488,146.9842 L169.2218,146.9842 L162.2568,146.9842 L155.2288,146.9842 L148.2618,146.9842 L141.2198,146.9842 L141.2198,139.9892 Z" id="Fill-18" fill="#212121"></path>
                <polygon id="Fill-19" fill="#FCD4AC" points="69.9652 20.9796 69.9652 27.9936 69.9652 34.9936 69.9652 41.9906 69.9652 48.9586 62.9402 48.9586 62.9402 41.9906 62.9402 34.9936 62.9402 27.9936 62.9402 20.9796 62.9402 13.9966 55.9732 13.9966 55.9732 20.9796 55.9732 27.9936 55.9732 34.9936 55.9732 41.9906 48.9462 41.9906 48.9462 34.9936 48.9462 27.9936 48.9462 20.9796 48.9462 13.9966 48.9462 6.9986 41.9792 6.9986 41.9792 13.9966 41.9792 20.9796 41.9792 27.9936 41.9792 34.9936 41.9792 41.9906 34.9382 41.9906 34.9382 34.9936 34.9382 27.9936 34.9382 20.9796 34.9382 13.9966 27.9872 13.9966 27.9872 20.9796 27.9872 27.9936 27.9872 34.9936 27.9872 41.9906 27.9872 48.9586 27.9872 55.9736 27.9872 63.0176 34.9382 63.0176 34.9382 70.0166 41.9792 70.0166 41.9792 77.0006 48.9462 77.0006 48.9462 83.9846 41.9792 83.9846 41.9792 77.0006 34.9382 77.0006 34.9382 70.0166 27.9872 70.0166 27.9872 63.0176 20.9462 63.0176 20.9462 55.9736 13.9922 55.9736 13.9922 48.9586 6.9522 48.9586 6.9522 55.9736 6.9522 63.0176 13.9922 63.0176 13.9922 70.0166 13.9922 77.0006 20.9462 77.0006 20.9462 83.9846 20.9462 90.9966 27.9872 90.9966 27.9872 97.9956 27.9872 104.9946 27.9872 111.9936 27.9872 118.9916 34.9382 118.9916 41.9792 118.9916 48.9462 118.9916 55.9732 118.9916 62.9402 118.9916 69.9652 118.9916 69.9652 111.9936 69.9652 104.9946 69.9652 97.9956 69.9652 90.9966 76.9322 90.9966 76.9322 83.9846 76.9322 77.0006 76.9322 70.0166 76.9322 63.0176 76.9322 55.9736 76.9322 48.9586 76.9322 41.9906 76.9322 34.9936 76.9322 27.9936 76.9322 20.9796"></polygon>
                <polygon id="Fill-20" fill="#FFCE54" points="55.973 140.002 62.94 140.002 62.94 133.006 55.973 133.006"></polygon>
                <polygon id="Fill-21" fill="#5D9CEC" points="62.9403 125.9748 55.9733 125.9748 48.9463 125.9748 41.9793 125.9748 34.9383 125.9748 27.9873 125.9748 27.9873 132.9728 34.9383 132.9728 41.9793 132.9728 48.9463 132.9728 55.9733 132.9728 62.9403 132.9728 69.9653 132.9728 69.9653 125.9748"></polygon>
                <polygon id="Fill-22" fill="#5D9CEC" points="62.9403 140.0017 55.9733 140.0017 55.9733 133.0057 48.9463 133.0057 41.9793 133.0057 34.9383 133.0057 27.9873 133.0057 27.9873 140.0017 27.9873 147.0027 34.9383 147.0027 41.9793 147.0027 48.9463 147.0027 55.9733 147.0027 62.9403 147.0027 69.9653 147.0027 69.9653 140.0017 69.9653 133.0057 62.9403 133.0057"></polygon>
                <polygon id="Fill-23" fill="#4A89DC" points="62.9406 154.0017 55.9726 154.0017 48.9456 154.0017 41.9786 154.0017 34.9376 154.0017 27.9876 154.0017 27.9876 160.9977 27.9876 167.9827 27.9876 174.9967 27.9876 181.9947 27.9876 188.9937 27.9876 195.9637 27.9876 202.9767 27.9876 210.0207 27.9876 217.0197 27.9876 224.0007 27.9876 230.9857 27.9876 238.0007 27.9876 244.9997 27.9876 251.9967 27.9876 321.0107 27.9876 328.0107 27.9876 334.9937 27.9876 341.9907 34.9376 341.9907 41.9786 341.9907 48.9456 341.9907 55.9726 341.9907 62.9406 341.9907 69.9656 341.9907 69.9656 334.9937 69.9656 328.0107 69.9656 321.0107 69.9656 251.9967 69.9656 244.9997 69.9656 238.0007 69.9656 230.9857 69.9656 224.0007 69.9656 217.0197 69.9656 210.0207 69.9656 202.9767 69.9656 195.9637 69.9656 188.9937 69.9656 181.9947 69.9656 174.9967 69.9656 167.9827 69.9656 160.9977 69.9656 154.0017"></polygon>
                <polygon id="Fill-24" fill="#212121" points="48.9458 20.9796 48.9458 27.9936 48.9458 34.9936 48.9458 41.9906 55.9728 41.9906 55.9728 34.9936 55.9728 27.9936 55.9728 20.9796 55.9728 13.9966 62.9398 13.9966 62.9398 6.9986 55.9728 6.9986 48.9458 6.9986 48.9458 13.9966"></polygon>
                <polygon id="Fill-25" fill="#212121" points="76.9326 20.9796 76.9326 27.9936 76.9326 34.9936 76.9326 41.9906 76.9326 48.9586 76.9326 55.9736 76.9326 63.0176 76.9326 70.0166 76.9326 77.0006 76.9326 83.9846 76.9326 90.9966 83.9746 90.9966 83.9746 83.9846 83.9746 77.0006 83.9746 70.0166 83.9746 63.0176 83.9746 55.9736 83.9746 48.9586 83.9746 41.9906 83.9746 34.9936 83.9746 27.9936 83.9746 20.9796"></polygon>
                <polygon id="Fill-26" fill="#212121" points="62.9403 27.9941 62.9403 34.9931 62.9403 41.9911 62.9403 48.9591 69.9653 48.9591 69.9653 41.9911 69.9653 34.9931 69.9653 27.9941 69.9653 20.9801 76.9323 20.9801 76.9323 13.9971 69.9653 13.9971 62.9403 13.9971 62.9403 20.9801"></polygon>
                <polygon id="Fill-27" fill="#212121" points="34.938 0 34.938 6.998 27.987 6.998 20.946 6.998 20.946 13.997 20.946 20.98 20.946 27.995 20.946 34.993 20.946 41.991 20.946 48.959 13.992 48.959 13.992 55.974 20.946 55.974 20.946 63.018 27.987 63.018 27.987 55.974 27.987 48.959 27.987 41.991 27.987 34.993 27.987 27.995 27.987 20.98 27.987 13.997 34.938 13.997 34.938 20.98 34.938 27.995 34.938 34.993 34.938 41.991 41.979 41.991 41.979 34.993 41.979 27.995 41.979 20.98 41.979 13.997 41.979 6.998 48.946 6.998 48.946 0"></polygon>
                <polygon id="Fill-28" fill="#212121" points="6.9516 41.9913 -0.0004 41.9913 -0.0004 48.9593 -0.0004 55.9733 -0.0004 63.0183 6.9516 63.0183 6.9516 55.9733 6.9516 48.9593 13.9926 48.9593 13.9926 41.9913"></polygon>
                <polygon id="Fill-29" fill="#212121" points="27.987 70.017 34.938 70.017 34.938 63.018 27.987 63.018"></polygon>
                <polygon id="Fill-30" fill="#212121" points="13.9924 63.0177 6.9524 63.0177 6.9524 70.0167 6.9524 77.0007 13.9924 77.0007 13.9924 70.0167"></polygon>
                <polygon id="Fill-31" fill="#212121" points="34.938 77.001 41.979 77.001 41.979 70.017 34.938 70.017"></polygon>
                <polygon id="Fill-32" fill="#212121" points="41.979 83.984 48.946 83.984 48.946 77 41.979 77"></polygon>
                <polygon id="Fill-33" fill="#212121" points="20.9458 77.0004 13.9928 77.0004 13.9928 83.9844 13.9928 90.9974 20.9458 90.9974 20.9458 83.9844"></polygon>
                <polygon id="Fill-34" fill="#212121" points="69.9652 97.9953 69.9652 104.9943 69.9652 111.9933 69.9652 118.9923 62.9402 118.9923 55.9732 118.9923 48.9462 118.9923 41.9792 118.9923 34.9382 118.9923 27.9872 118.9923 27.9872 111.9933 27.9872 104.9943 27.9872 97.9953 27.9872 90.9973 20.9462 90.9973 20.9462 97.9953 20.9462 104.9943 20.9462 111.9933 20.9462 118.9923 20.9462 125.9743 20.9462 132.9733 27.9872 132.9733 27.9872 125.9743 34.9382 125.9743 41.9792 125.9743 48.9462 125.9743 55.9732 125.9743 62.9402 125.9743 69.9652 125.9743 69.9652 132.9733 76.9322 132.9733 76.9322 125.9743 76.9322 118.9923 76.9322 111.9933 76.9322 104.9943 76.9322 97.9953 76.9322 90.9973 69.9652 90.9973"></polygon>
                <polygon id="Fill-35" fill="#212121" points="69.9651 133.0056 69.9651 140.0016 69.9651 147.0026 62.9401 147.0026 55.9731 147.0026 48.9451 147.0026 41.9791 147.0026 34.9381 147.0026 27.9871 147.0026 27.9871 140.0016 27.9871 133.0056 20.9461 133.0056 20.9461 140.0016 20.9461 147.0026 20.9461 154.0016 20.9461 160.9976 20.9461 167.9826 20.9461 174.9966 20.9461 181.9946 20.9461 188.9936 20.9461 195.9636 20.9461 202.9766 20.9461 210.0206 20.9461 217.0196 20.9461 224.0006 20.9461 230.9856 20.9461 238.0006 20.9461 244.9996 20.9461 251.9966 20.9461 321.0106 20.9461 328.0106 20.9461 334.9936 20.9461 341.9906 27.9871 341.9906 27.9871 334.9936 27.9871 328.0106 27.9871 321.0106 27.9871 251.9966 27.9871 244.9996 27.9871 238.0006 27.9871 230.9856 27.9871 224.0006 27.9871 217.0196 27.9871 210.0206 27.9871 202.9766 27.9871 195.9636 27.9871 188.9936 27.9871 181.9946 27.9871 174.9966 27.9871 167.9826 27.9871 160.9976 27.9871 154.0016 34.9381 154.0016 41.9791 154.0016 48.9451 154.0016 55.9731 154.0016 62.9401 154.0016 69.9651 154.0016 69.9651 160.9976 69.9651 167.9826 69.9651 174.9966 69.9651 181.9946 69.9651 188.9936 69.9651 195.9636 69.9651 202.9766 69.9651 210.0206 69.9651 217.0196 69.9651 224.0006 69.9651 230.9856 69.9651 238.0006 69.9651 244.9996 69.9651 251.9966 69.9651 321.0106 69.9651 328.0106 69.9651 334.9936 69.9651 341.9906 76.9331 341.9906 76.9331 334.9936 76.9331 328.0106 76.9331 321.0106 76.9331 251.9966 76.9331 244.9996 76.9331 238.0006 76.9331 230.9856 76.9331 224.0006 76.9331 217.0196 76.9331 210.0206 76.9331 202.9766 76.9331 195.9636 76.9331 188.9936 76.9331 181.9946 76.9331 174.9966 76.9331 167.9826 76.9331 160.9976 76.9331 154.0016 76.9331 147.0026 76.9331 140.0016 76.9331 133.0056"></polygon>
                <polygon id="Fill-36" fill="#B27239" points="290.9521 20.9796 290.9521 27.9936 290.9521 34.9936 290.9521 41.9906 290.9521 48.9586 283.9271 48.9586 283.9271 41.9906 283.9271 34.9936 283.9271 27.9936 283.9271 20.9796 283.9271 13.9966 276.9601 13.9966 276.9601 20.9796 276.9601 27.9936 276.9601 34.9936 276.9601 41.9906 269.9331 41.9906 269.9331 34.9936 269.9331 27.9936 269.9331 20.9796 269.9331 13.9966 269.9331 6.9986 262.9661 6.9986 262.9661 13.9966 262.9661 20.9796 262.9661 27.9936 262.9661 34.9936 262.9661 41.9906 255.9251 41.9906 255.9251 34.9936 255.9251 27.9936 255.9251 20.9796 255.9251 13.9966 248.9741 13.9966 248.9741 20.9796 248.9741 27.9936 248.9741 34.9936 248.9741 41.9906 248.9741 48.9586 248.9741 55.9736 248.9741 63.0176 255.9251 63.0176 255.9251 70.0166 262.9661 70.0166 262.9661 77.0006 269.9331 77.0006 269.9331 83.9846 262.9661 83.9846 262.9661 77.0006 255.9251 77.0006 255.9251 70.0166 248.9741 70.0166 248.9741 63.0176 241.9331 63.0176 241.9331 55.9736 234.9791 55.9736 234.9791 48.9586 227.9391 48.9586 227.9391 55.9736 227.9391 63.0176 234.9791 63.0176 234.9791 70.0166 234.9791 77.0006 241.9331 77.0006 241.9331 83.9846 241.9331 90.9966 248.9741 90.9966 248.9741 97.9956 248.9741 104.9946 248.9741 111.9936 248.9741 118.9916 255.9251 118.9916 262.9661 118.9916 269.9331 118.9916 276.9601 118.9916 283.9271 118.9916 290.9521 118.9916 290.9521 111.9936 290.9521 104.9946 290.9521 97.9956 290.9521 90.9966 297.9191 90.9966 297.9191 83.9846 297.9191 77.0006 297.9191 70.0166 297.9191 63.0176 297.9191 55.9736 297.9191 48.9586 297.9191 41.9906 297.9191 34.9936 297.9191 27.9936 297.9191 20.9796"></polygon>
                <polygon id="Fill-37" fill="#FFCE54" points="276.96 140.002 283.927 140.002 283.927 133.006 276.96 133.006"></polygon>
                <polygon id="Fill-38" fill="#48CFAD" points="283.9272 125.9748 276.9602 125.9748 269.9332 125.9748 262.9662 125.9748 255.9252 125.9748 248.9742 125.9748 248.9742 132.9728 255.9252 132.9728 262.9662 132.9728 269.9332 132.9728 276.9602 132.9728 283.9272 132.9728 290.9522 132.9728 290.9522 125.9748"></polygon>
                <polygon id="Fill-39" fill="#48CFAD" points="283.9272 140.0017 276.9602 140.0017 276.9602 133.0057 269.9332 133.0057 262.9662 133.0057 255.9252 133.0057 248.9742 133.0057 248.9742 140.0017 248.9742 147.0027 255.9252 147.0027 262.9662 147.0027 269.9332 147.0027 276.9602 147.0027 283.9272 147.0027 290.9522 147.0027 290.9522 140.0017 290.9522 133.0057 283.9272 133.0057"></polygon>
                <polygon id="Fill-40" fill="#48CFAD" points="283.9275 154.0017 276.9595 154.0017 269.9325 154.0017 262.9655 154.0017 255.9245 154.0017 248.9745 154.0017 248.9745 160.9977 248.9745 167.9827 248.9745 174.9967 248.9745 181.9947 248.9745 188.9937 248.9745 195.9637 248.9745 202.9767 248.9745 210.0207 248.9745 217.0197 248.9745 224.0007 248.9745 230.9857 248.9745 238.0007 248.9745 244.9997 248.9745 251.9967 248.9745 321.0107 248.9745 328.0107 248.9745 334.9937 248.9745 341.9907 255.9245 341.9907 262.9655 341.9907 269.9325 341.9907 276.9595 341.9907 283.9275 341.9907 290.9525 341.9907 290.9525 334.9937 290.9525 328.0107 290.9525 321.0107 290.9525 251.9967 290.9525 244.9997 290.9525 238.0007 290.9525 230.9857 290.9525 224.0007 290.9525 217.0197 290.9525 210.0207 290.9525 202.9767 290.9525 195.9637 290.9525 188.9937 290.9525 181.9947 290.9525 174.9967 290.9525 167.9827 290.9525 160.9977 290.9525 154.0017"></polygon>
                <polygon id="Fill-41" fill="#212121" points="269.9327 20.9796 269.9327 27.9936 269.9327 34.9936 269.9327 41.9906 276.9597 41.9906 276.9597 34.9936 276.9597 27.9936 276.9597 20.9796 276.9597 13.9966 283.9267 13.9966 283.9267 6.9986 276.9597 6.9986 269.9327 6.9986 269.9327 13.9966"></polygon>
                <polygon id="Fill-42" fill="#212121" points="297.9198 20.9799 297.9198 27.9949 297.9198 34.9929 297.9198 41.9909 297.9198 48.9589 297.9198 55.9739 297.9198 63.0179 297.9198 70.0159 297.9198 76.9999 297.9198 83.9839 297.9198 90.9969 304.9618 90.9969 304.9618 20.9799"></polygon>
                <polygon id="Fill-43" fill="#212121" points="283.9272 27.9941 283.9272 34.9931 283.9272 41.9911 283.9272 48.9591 290.9522 48.9591 290.9522 41.9911 290.9522 34.9931 290.9522 27.9941 290.9522 20.9801 297.9192 20.9801 297.9192 13.9971 290.9522 13.9971 283.9272 13.9971 283.9272 20.9801"></polygon>
                <polygon id="Fill-44" fill="#212121" points="255.9249 0 255.9249 6.998 248.9739 6.998 241.9329 6.998 241.9329 13.997 241.9329 20.98 241.9329 27.995 241.9329 34.993 241.9329 41.991 241.9329 48.959 234.9789 48.959 234.9789 55.974 241.9329 55.974 241.9329 63.018 248.9739 63.018 248.9739 55.974 248.9739 48.959 248.9739 41.991 248.9739 34.993 248.9739 27.995 248.9739 20.98 248.9739 13.997 255.9249 13.997 255.9249 20.98 255.9249 27.995 255.9249 34.993 255.9249 41.991 262.9659 41.991 262.9659 34.993 262.9659 27.995 262.9659 20.98 262.9659 13.997 262.9659 6.998 269.9329 6.998 269.9329 0"></polygon>
                <polygon id="Fill-45" fill="#212121" points="227.9389 48.9591 234.9789 48.9591 234.9789 41.9911 227.9389 41.9911 220.9869 41.9911 220.9869 48.9591 220.9869 55.9731 220.9869 63.0181 227.9389 63.0181 227.9389 55.9731"></polygon>
                <polygon id="Fill-46" fill="#212121" points="248.974 70.017 255.925 70.017 255.925 63.018 248.974 63.018"></polygon>
                <polygon id="Fill-47" fill="#212121" points="234.9793 63.0177 227.9393 63.0177 227.9393 70.0167 227.9393 77.0007 234.9793 77.0007 234.9793 70.0167"></polygon>
                <polygon id="Fill-48" fill="#212121" points="255.925 77.001 262.966 77.001 262.966 70.017 255.925 70.017"></polygon>
                <polygon id="Fill-49" fill="#212121" points="262.966 83.984 269.933 83.984 269.933 77 262.966 77"></polygon>
                <polygon id="Fill-50" fill="#212121" points="241.9327 77.0004 234.9797 77.0004 234.9797 83.9844 234.9797 90.9974 241.9327 90.9974 241.9327 83.9844"></polygon>
                <polygon id="Fill-51" fill="#212121" points="290.9521 97.9953 290.9521 104.9943 290.9521 111.9933 290.9521 118.9923 283.9271 118.9923 276.9601 118.9923 269.9331 118.9923 262.9661 118.9923 255.9251 118.9923 248.9741 118.9923 248.9741 111.9933 248.9741 104.9943 248.9741 97.9953 248.9741 90.9973 241.9331 90.9973 241.9331 97.9953 241.9331 104.9943 241.9331 111.9933 241.9331 118.9923 241.9331 125.9743 241.9331 132.9733 248.9741 132.9733 248.9741 125.9743 255.9251 125.9743 262.9661 125.9743 269.9331 125.9743 276.9601 125.9743 283.9271 125.9743 290.9521 125.9743 290.9521 132.9733 297.9191 132.9733 297.9191 125.9743 297.9191 118.9923 297.9191 111.9933 297.9191 104.9943 297.9191 97.9953 297.9191 90.9973 290.9521 90.9973"></polygon>
                <polygon id="Fill-52" fill="#212121" points="290.952 133.0056 290.952 140.0016 290.952 147.0026 283.927 147.0026 276.96 147.0026 269.932 147.0026 262.966 147.0026 255.925 147.0026 248.974 147.0026 248.974 140.0016 248.974 133.0056 241.933 133.0056 241.933 140.0016 241.933 147.0026 241.933 154.0016 241.933 160.9976 241.933 167.9826 241.933 174.9966 241.933 181.9946 241.933 188.9936 241.933 195.9636 241.933 202.9766 241.933 210.0206 241.933 217.0196 241.933 224.0006 241.933 230.9856 241.933 238.0006 241.933 244.9996 241.933 251.9966 241.933 321.0106 241.933 328.0106 241.933 334.9936 241.933 341.9906 248.974 341.9906 248.974 334.9936 248.974 328.0106 248.974 321.0106 248.974 251.9966 248.974 244.9996 248.974 238.0006 248.974 230.9856 248.974 224.0006 248.974 217.0196 248.974 210.0206 248.974 202.9766 248.974 195.9636 248.974 188.9936 248.974 181.9946 248.974 174.9966 248.974 167.9826 248.974 160.9976 248.974 154.0016 255.925 154.0016 262.966 154.0016 269.932 154.0016 276.96 154.0016 283.927 154.0016 290.952 154.0016 290.952 160.9976 290.952 167.9826 290.952 174.9966 290.952 181.9946 290.952 188.9936 290.952 195.9636 290.952 202.9766 290.952 210.0206 290.952 217.0196 290.952 224.0006 290.952 230.9856 290.952 238.0006 290.952 244.9996 290.952 251.9966 290.952 321.0106 290.952 328.0106 290.952 334.9936 290.952 341.9906 297.92 341.9906 297.92 334.9936 297.92 328.0106 297.92 321.0106 297.92 251.9966 297.92 244.9996 297.92 238.0006 297.92 230.9856 297.92 224.0006 297.92 217.0196 297.92 210.0206 297.92 202.9766 297.92 195.9636 297.92 188.9936 297.92 181.9946 297.92 174.9966 297.92 167.9826 297.92 160.9976 297.92 154.0016 297.92 147.0026 297.92 140.0016 297.92 133.0056"></polygon>
            </g>
        </g>
    </g>
</svg>