<svg xmlns="http://www.w3.org/2000/svg" viewBox="0 0 969.57 474.25"><defs><style>.cls-1{fill:#e51675;}.cls-2{fill:#fff;}</style></defs><title>Artboard 2</title><g id="white"><polygon class="cls-1" points="693.17 0 945.8 252.88 917.11 353.55 837.09 434.29 749.78 346.99 702.49 343.91 691.24 333.16 655.95 353.55 634.11 331.53 624.74 353.55 596.32 351.24 543.82 298.7 526.44 346.66 475.28 351.63 417.11 293.32 419.52 286.66 407.11 286.66 375.56 377.47 0 1.77 693.17 0"/><path class="cls-2" d="M945.8,252.88l-.25.1s0-.08,0-.12l-23.81,3.86c0,13.25-8.41,49.43-8.41,49.43l-14.55-37.52-17.48-17.19s-15.67,15.58-19.45,17l-15.39-15.36-2.14.07c.75-5.55,3.32-10.71,9.25-11.93a13.24,13.24,0,0,1,5,0c4.79,1.35,7.78,6.72,7.78,6.72l5.9-2.13,16.48-5.94.41-.16,0-.06s-.44-1-.85-1.82a46,46,0,0,0-3.95-7.26,62.92,62.92,0,0,0-4.16-6.55,78.68,78.68,0,0,0-17.12-16.25c-10.33-7.46-18.36-7.79-18.36-7.79L817.61,208l-10.5,49.37-17.78,16.19-1.86,2,14.86,14.9,0-1.73c.3,1.35,2.2,3.64,1.5,4.82l-1.47,57.72.07.74-.94.69,17,16.94h25.59v-5.41c0-27.21.35-52.59.37-71.59h18.63V272.53l36.25,86.13c-11.93,24.93-51.84,73.44-51.84,73.44l-10.42,2.2,17,17,20.38,14.65C927,411.21,959,348.66,962.74,269.66Z"/><path class="cls-2" d="M755.12,328.16h0Z"/><path class="cls-2" d="M761.75,289.15c.4.2,6.7,3.08,11.08,11.34l21.93-5.31-.22-1a39.79,39.79,0,0,0-6.93-15.36l0,0-.21-.27-.15-.19a149,149,0,0,0-17-17.94,41.45,41.45,0,0,0-18.05-9.69s-50.63,19.34-53.1,19.76l-16.57-16.55s-25.58,12.8-25.77,12.78l.28,0-13.76-13.81-.16.2-4,1.53,0-15.92v0l-17-16.94h0l-.19.31c0,.35-18.89,34.41-18.89,34.41s-20.85,8-22.65,8.88l-12.77-12.66-2.12,2.73c-.72.47-22.69-4.36-22.69-4.36l-7.31-7-25.07,7.72-.56,93.81a267.56,267.56,0,0,1-13.68-84.35,380.16,380.16,0,0,1,6.17-64c0-.05,0-.07,0-.07l.18-1.15-16.87-17s-21.89-9.67-22.56-10.53c-51.86,54-82.5,132.17-87.55,208.87h0s0,.09,0,.14l.08-.06,16.92,17.06,26.24.07c0-.33,0-.93,0-.93h0c-.19-3-.28-6.2-.3-9.29,0-22.36,4.33-46.71,11.65-69.71h31.76a241.56,241.56,0,0,0,13.36,37h0l17,17,28.52.15-.6-1.17A99.08,99.08,0,0,1,515,356.85l10.66,10.81h26.44v-65c4.11-12,15.1-15.33,26.23-7.17l4.28-17.8,16.18,16.44.56,48.41L596.55,351l-.23.27,17.49,17.42h25.46v-1h0l-.1-76h19.94l2.66,56.91-5.82,5,17.17,17.06v0h26V338.32c2,1.62,2.73,5.26,4.17,6.66.33.34,15.86,15.67,16.2,16,8.47,8.85,21.25,13.51,35.65,13.51,21.86,0,43.44-9.84,43.44-34.9,0-.18,0-.35,0-.53s0-.31,0-.47c0-9.2-3.15-15.6-8-20.19-.32-.34-14.66-14.68-15-15-7.68-8.1-20.92-10.69-32-12.87-.2,0-.23-.23-.42-.26A32.56,32.56,0,0,1,755,287.7a13.85,13.85,0,0,1,5.05.68M445.53,275.66c2.61-6,5.37-11,8.24-16.28.19,5.61.55,10.28,1.06,16.28Zm309.58,62.5s-13.17-.67-13.89-1.14l-.14,0s.64-2.61-1.8-2.62a34.37,34.37,0,0,1-9.54-1.35,21.6,21.6,0,0,1-9.46-4.92,43.64,43.64,0,0,1-7-8l-2.93,3.31.08.68-11.33,3.11V287.37c2,2.83-1,5.67,5.29,12.16.32.34.76.68,1.1,1s.71.68,1.05,1,.68.68,1,1,.67.68,1,1,.66.68,1,1,.66.68,1,1,.66.68,1,1,.66.68,1,1,.66.68,1,1,.66.68,1,1,.66.68,1,1,.66.68,1,1,.66.68,1,1,.66.68,1,1,.66.68,1,1,.66.68,1,1c8.26,8.79,22.85,10.52,34.68,12.62h-.13C762.11,328.2,755.11,338.16,755.11,338.16Z"/><polyline class="cls-2" points="675.11 246.66 701.11 246.66 701.29 221.41 684.18 204.3 679.33 205.09 680.02 205.78 669.22 208.57 663.36 210.49 662.75 218.95 661.05 217.17 658.43 230.04 675.11 246.66"/><path id="Combined-Shape" d="M801.83,275.57H787.46V253.09h14.46l.05-13.26c0-23.21,9.17-38.38,29.77-40.25,18.68-1.69,32.57,5.27,40,23.26l-22.38,8.07c-2.32-6.15-7.57-7.53-12.82-6.46-7.56,1.55-8.8,6.92-9,15.37,0,2.1-.07,6.69-.09,13.26h18.93v22.48h-19c0,20.56,0,47.86,0,77.14H801.52Z"/><path id="path1_fill" data-name="path1 fill" d="M738.13,249c27.54,0,36.62,16.85,39.41,29.26l-21.71,5.27c-1.7-3.69-4-13-17.41-12.39-10.93,0-17.18,3.38-17.18,8.92,0,15.53,60.33,2.31,60.33,42.59,0,25.06-21.58,34.9-43.44,34.9s-40-10.73-45-30.59l20.12-6.77c5.63,10.18,10.93,14.3,24.84,14.3,10.51,0,18.74-3.38,18.74-12,0-19.83-59.77-1.54-59.77-42.43C697.11,264.64,710.59,249,738.13,249Z"/><polygon id="path2_fill" data-name="path2 fill" points="684.38 204.3 658.43 204.3 658.43 230.04 683.76 230.04 684.38 204.3"/><polygon id="path3_fill" data-name="path3 fill" points="682.51 253.92 655.95 253.92 655.95 353.55 682.51 353.55 682.51 253.92"/><path id="Combined-Shape-2" data-name="Combined-Shape" d="M596.34,275H579V252.85h17.32V228.49l25.74-6.82,0,31.18h21.13V275h-21.1l.1,76.22H596.32Z"/><path d="M535.49,257.53h0V244l-25.94,7.38V351h25.94V285.81h0c4.11-11.81,14.81-15.23,25.94-7.07l6.18-26.14C552.81,243,541.93,247.48,535.49,257.53Z"/><path id="Combined-Shape-3" data-name="Combined-Shape" d="M894.52,354.85l-37.41-95.91,24.17-7.5,26.83,69.29c7-22,11.12-45,11.12-67.85H945.8C942.09,331.29,910,394.32,857.47,449l-20.38-14.76C859.07,413.94,879.53,386.19,894.52,354.85Z"/><path id="Combined-Shape-4" data-name="Combined-Shape" d="M413.15,297.6c-8.44,26.91-12.91,54.59-11.35,79.77H375.56c0-78.71,36.45-158.65,89.33-212.78L485.67,179c-15.44,86.71.41,140,17.52,172.77l-27.92-.16a234.56,234.56,0,0,1-17.26-54Zm8-22.33h33.7A290.8,290.8,0,0,1,456,211.32,300.4,300.4,0,0,0,421.13,275.27Z"/></g></svg>