<?xml version="1.0" encoding="UTF-8"?>
<svg width="284px" height="369px" viewBox="0 0 284 369" version="1.1" xmlns="http://www.w3.org/2000/svg" xmlns:xlink="http://www.w3.org/1999/xlink">
    <!-- Generator: Sketch 48.2 (47327) - http://www.bohemiancoding.com/sketch -->
    <title>smiling-people-2</title>
    <desc>Created with Sketch.</desc>
    <defs></defs>
    <g id="Page-1" stroke="none" stroke-width="1" fill="none" fill-rule="evenodd">
        <g id="smiling-people-2">
            <g id="Page-1">
                <polygon id="Fill-1" fill="#E51675" points="5.61913357 144.571849 5.61913357 168.337084 18.289769 168.337084 18.289769 220.722819 24.5801336 227.01524 27.9955451 233.244287 89.039769 236.566309 93.6372419 207.849727 94.9143177 160.92642 108.962152 157.859938 108.962152 137.672265 108.962152 131.347134 106.799296 131.347134 103.470726 126.684037 91.8493357 126.684037 90.2678051 123.170871 45.4638989 123.170871 41.3772563 123.170871 37.3999314 127.14912 18.5451841 129.239439 16.8574007 130.77268 11.1381444 136.650104"></polygon>
                <polygon id="Fill-2" fill="#FBE2CD" points="103.471032 35.5839681 24.0369166 35.5839681 24.0369166 98.6390152 31.3162487 98.6390152 31.3162487 107.58701 38.5955809 107.58701 38.5955809 114.993586 47.7905267 114.993586 47.7905267 123.170871 75.0923643 123.170871 75.0923643 114.993586 90.417274 114.993586 90.417274 107.58701 98.74483 107.58701 98.74483 98.6390152 103.471032 98.6390152"></polygon>
                <polygon id="Fill-3" fill="#FBE2CD" points="6.02984116 245.82964 25.0306859 245.82964 25.0306859 169.869814 6.02984116 169.869814"></polygon>
                <polygon id="Fill-4" fill="#1B75BB" points="27.9955451 355.647515 95.4016498 355.647515 95.4016498 233.243776 27.9955451 233.243776"></polygon>
                <polygon id="Fill-5" fill="#FBE2CD" points="95.4016498 245.82964 114.402495 245.82964 114.402495 158.626047 95.4016498 158.626047"></polygon>
                <polygon id="Fill-6" fill="#E3B50A" points="25.0306859 98.6385042 33.6933466 98.6385042 33.6933466 89.9501385 25.0306859 89.9501385"></polygon>
                <polygon id="Fill-7" fill="#E3B50A" points="41.3772563 82.2839335 41.3772563 41.3975069 99.6824079 41.3975069 99.6824079 34.2423823 106.763538 34.2423823 106.763538 15.949795 90.4353574 15.949795 90.4353574 8.68836565 74.2195596 8.68836565 74.2195596 16.2595097 57.7238267 16.2595097 57.7238267 8.68836565 49.5505415 8.68836565 49.5505415 16.865651 41.5264188 16.865651 41.5264188 25.1931939 33.2039711 25.1931939 33.2039711 17.3542438 25.0306859 17.3542438 25.0306859 33.2202216 17.8790614 33.2202216 17.8790614 41.3975069 9.70577617 41.3975069 9.70577617 64.1630693 15.5547834 64.1630693 15.5547834 83.3418698 25.0306859 83.3418698 25.0306859 65.9293629 33.2039711 65.9293629 33.2039711 82.2839335"></polygon>
                <polygon id="Fill-8" fill="#FFFFFF" points="81.7175271 74.5543546 99.0857581 74.5543546 99.0857581 58.1997839 81.7175271 58.1997839"></polygon>
                <polygon id="Fill-9" fill="#000000" points="1.53249097 64.9072022 9.70577617 64.9072022 9.70577617 41.3975069 1.53249097 41.3975069"></polygon>
                <polygon id="Stroke-10" stroke="#231F20" points="1.53249097 64.9072022 9.70577617 64.9072022 9.70577617 41.3975069 1.53249097 41.3975069"></polygon>
                <polygon id="Fill-12" fill="#000000" points="9.70577617 83.3060942 16.8574007 83.3060942 16.8574007 64.9072022 9.70577617 64.9072022"></polygon>
                <polygon id="Stroke-13" stroke="#231F20" points="9.70577617 83.3060942 16.8574007 83.3060942 16.8574007 64.9072022 9.70577617 64.9072022"></polygon>
                <polygon id="Fill-14" fill="#000000" points="16.8574007 98.6385042 25.0306859 98.6385042 25.0306859 83.3060942 16.8574007 83.3060942"></polygon>
                <polygon id="Stroke-15" stroke="#231F20" points="16.8574007 98.6385042 25.0306859 98.6385042 25.0306859 83.3060942 16.8574007 83.3060942"></polygon>
                <polygon id="Fill-16" fill="#000000" points="25.0306859 106.815789 33.2039711 106.815789 33.2039711 98.6385042 25.0306859 98.6385042"></polygon>
                <polygon id="Stroke-17" stroke="#231F20" points="25.0306859 106.815789 33.2039711 106.815789 33.2039711 98.6385042 25.0306859 98.6385042"></polygon>
                <polygon id="Fill-18" fill="#000000" points="33.2039711 114.993075 41.3772563 114.993075 41.3772563 106.815789 33.2039711 106.815789"></polygon>
                <polygon id="Stroke-19" stroke="#231F20" points="33.2039711 114.993075 41.3772563 114.993075 41.3772563 106.815789 33.2039711 106.815789"></polygon>
                <polygon id="Fill-20" fill="#000000" points="41.3772563 123.17036 49.5505415 123.17036 49.5505415 114.993075 41.3772563 114.993075"></polygon>
                <polygon id="Stroke-21" stroke="#231F20" points="41.3772563 123.17036 49.5505415 123.17036 49.5505415 114.993075 41.3772563 114.993075"></polygon>
                <polygon id="Fill-22" fill="#000000" points="9.70577617 41.3975069 17.8790614 41.3975069 17.8790614 33.2202216 9.70577617 33.2202216"></polygon>
                <polygon id="Stroke-23" stroke="#231F20" points="9.70577617 41.3975069 17.8790614 41.3975069 17.8790614 33.2202216 9.70577617 33.2202216"></polygon>
                <polygon id="Fill-24" fill="#000000" points="17.8790614 33.2202216 25.0306859 33.2202216 25.0306859 17.3542438 17.8790614 17.3542438"></polygon>
                <polygon id="Stroke-25" stroke="#231F20" points="17.8790614 33.2202216 25.0306859 33.2202216 25.0306859 17.3542438 17.8790614 17.3542438"></polygon>
                <polygon id="Fill-26" fill="#000000" points="25.0306859 17.3542438 33.6933466 17.3542438 33.6933466 8.68836565 25.0306859 8.68836565"></polygon>
                <polygon id="Stroke-27" stroke="#231F20" points="25.0306859 17.3542438 33.6933466 17.3542438 33.6933466 8.68836565 25.0306859 8.68836565"></polygon>
                <polygon id="Fill-28" fill="#000000" points="33.6923249 25.1921717 41.5264188 25.1921717 41.5264188 17.3542438 33.6923249 17.3542438"></polygon>
                <polygon id="Stroke-29" stroke="#231F20" points="33.6923249 25.1921717 41.5264188 25.1921717 41.5264188 17.3542438 33.6923249 17.3542438"></polygon>
                <polygon id="Fill-30" fill="#000000" points="41.5264188 17.3542438 50.1890794 17.3542438 50.1890794 8.68836565 41.5264188 8.68836565"></polygon>
                <polygon id="Stroke-31" stroke="#231F20" points="41.5264188 17.3542438 50.1890794 17.3542438 50.1890794 8.68836565 41.5264188 8.68836565"></polygon>
                <polygon id="Fill-32" fill="#000000" points="50.1890794 8.68836565 57.7238267 8.68836565 57.7238267 1.14993075 50.1890794 1.14993075"></polygon>
                <polygon id="Stroke-33" stroke="#231F20" points="50.1890794 8.68836565 57.7238267 8.68836565 57.7238267 1.14993075 50.1890794 1.14993075"></polygon>
                <polygon id="Fill-35" fill="#000000" points="57.7238267 16.865651 74.2195596 16.865651 74.2195596 8.68836565 57.7238267 8.68836565"></polygon>
                <polygon id="Stroke-36" stroke="#231F20" points="57.7238267 16.865651 74.2195596 16.865651 74.2195596 8.68836565 57.7238267 8.68836565"></polygon>
                <polygon id="Fill-37" fill="#000000" points="74.2195596 8.68836565 90.4169675 8.68836565 90.4169675 0.511080332 74.2195596 0.511080332"></polygon>
                <polygon id="Stroke-38" stroke="#231F20" points="74.2195596 8.68836565 90.4169675 8.68836565 90.4169675 0.511080332 74.2195596 0.511080332"></polygon>
                <polygon id="Fill-40" fill="#000000" points="90.4169675 16.865651 106.763538 16.865651 106.763538 8.68836565 90.4169675 8.68836565"></polygon>
                <polygon id="Stroke-41" stroke="#231F20" points="90.4169675 16.865651 106.763538 16.865651 106.763538 8.68836565 90.4169675 8.68836565"></polygon>
                <polygon id="Fill-42" fill="#000000" points="106.763538 33.2202216 114.936823 33.2202216 114.936823 16.865651 106.763538 16.865651"></polygon>
                <polygon id="Stroke-43" stroke="#231F20" points="106.763538 33.2202216 114.936823 33.2202216 114.936823 16.865651 106.763538 16.865651"></polygon>
                <path d="M98.7445235,74.1062393 L98.7445235,57.7526909 L98.7445235,74.1062393 Z" id="Fill-44" fill="#000000"></path>
                <path d="M98.74483,57.7520776 L98.74483,74.1066482" id="Stroke-45" stroke="#231F20"></path>
                <g id="Group-48" transform="translate(73.559567, 32.709141)">
                    <polyline id="Fill-46" fill="#000000" points="25.1852632 41.3975069 25.1852632 74.1066482 16.8577072 74.1066482 16.8577072 82.2839335 0.511136823 82.2839335 0.511136823 90.4612188 16.7075231 90.4612188 16.7075231 98.6385042 33.2400357 98.6385042 33.2400357 90.4254432 17.6597108 90.4254432 17.6597108 82.4382798 25.1852632 82.4382798 25.1852632 74.8783795 33.2042776 74.8783795 33.2042776 0.511080332 25.1852632 0.511080332 25.1852632 25.0429363"></polyline>
                    <polyline id="Stroke-47" stroke="#231F20" points="25.1852632 41.3975069 25.1852632 74.1066482 16.8577072 74.1066482 16.8577072 82.2839335 0.511136823 82.2839335 0.511136823 90.4612188 16.7075231 90.4612188 16.7075231 98.6385042 33.2400357 98.6385042 33.2400357 90.4254432 17.6597108 90.4254432 17.6597108 82.4382798 25.1852632 82.4382798 25.1852632 74.8783795 33.2042776 74.8783795 33.2042776 0.511080332 25.1852632 0.511080332 25.1852632 25.0429363"></polyline>
                </g>
                <polygon id="Fill-49" fill="#000000" points="57.7238267 104.547615 82.2436823 104.547615 82.2436823 98.6385042 57.7238267 98.6385042"></polygon>
                <polygon id="Stroke-50" stroke="#231F20" points="57.7238267 104.547615 82.2436823 104.547615 82.2436823 98.6385042 57.7238267 98.6385042"></polygon>
                <polygon id="Fill-51" fill="#000000" points="114.402495 245.82964 123.110108 245.82964 123.110108 229.475069 114.402495 229.475069"></polygon>
                <polygon id="Stroke-52" stroke="#231F20" points="114.402495 245.82964 123.110108 245.82964 123.110108 229.475069 114.402495 229.475069"></polygon>
                <path d="M106.799296,131.347952 L106.799296,155.645733 L98.5902527,155.645733 L98.5902527,147.701501 L90.4169675,147.701501 L90.4169675,229.474354 L25.0306859,229.474354 L25.0306859,237.651639 L25.0306859,245.829947 L8.68411552,245.829947 L8.68411552,254.007232 L25.0306859,254.007232 L25.0306859,352.134656 L25.0306859,361.269706 L25.0306859,368.488204 L106.763538,368.488204 L114.936823,368.488204 L114.936823,360.311941 L106.763538,360.311941 L106.763538,352.134656 L98.4676534,352.134656 L98.4676534,254.114559 L114.401473,254.114559 L114.401473,245.829947 L98.5902527,245.829947 L98.5902527,164.056071 L106.799296,164.056071 L106.799296,229.474354 L114.401473,229.474354 L114.401473,131.347952 L106.799296,131.347952 Z M33.2039711,237.651639 L90.4169675,237.651639 L90.4169675,245.829947 L90.4169675,254.114559 L90.4169675,352.134656 L65.8971119,352.134656 L65.8971119,278.539088 L74.0703971,278.539088 L74.0703971,261.874802 L81.901426,261.874802 L81.901426,254.007232 L65.8971119,254.007232 L65.8971119,261.874802 L65.8971119,270.361802 L57.7238267,270.361802 L57.7238267,352.134656 L33.2039711,352.134656 L33.2039711,237.651639 Z" id="Fill-53" fill="#000000"></path>
                <path d="M90.4169675,352.134349 L65.8971119,352.134349 L65.8971119,278.538781 L74.0703971,278.538781 L74.0703971,261.874496 L81.901426,261.874496 L81.901426,254.006925 L65.8971119,254.006925 L65.8971119,261.874496 L65.8971119,270.361496 L57.7238267,270.361496 L57.7238267,352.134349 L33.2039711,352.134349 L33.2039711,237.652355 L90.4169675,237.652355 L90.4169675,245.82964 L90.4169675,254.114252 L90.4169675,352.134349 Z M114.402495,254.114252 L114.402495,245.82964 L98.5902527,245.82964 L98.5902527,164.056787 L106.799296,164.056787 L106.799296,229.475069 L114.402495,229.475069 L114.402495,131.347645 L106.799296,131.347645 L106.799296,155.645427 L98.5902527,155.645427 L98.5902527,147.702216 L90.4169675,147.702216 L90.4169675,229.475069 L25.0306859,229.475069 L25.0306859,237.652355 L25.0306859,245.82964 L8.68411552,245.82964 L8.68411552,254.006925 L25.0306859,254.006925 L25.0306859,352.134349 L25.0306859,361.270421 L25.0306859,368.48892 L106.763538,368.48892 L114.936823,368.48892 L114.936823,360.311634 L106.763538,360.311634 L106.763538,352.134349 L98.4676534,352.134349 L98.4676534,254.114252 L114.402495,254.114252 Z" id="Stroke-54" stroke="#231F20"></path>
                <polygon id="Fill-56" fill="#000000" points="16.8570942 123.170565 16.8570942 130.773396 8.10861408 130.773396 8.10861408 139.525135 0.511545487 139.525135 0.511545487 245.829844 8.68380903 245.829844 8.68380903 172.2169 16.8570942 172.2169 16.8570942 229.475274 25.0303794 229.475274 25.0303794 172.2169 25.0303794 164.056991 25.0303794 155.645631 16.8570942 155.645631 16.8570942 164.056991 8.68380903 164.056991 8.68380903 139.525135 16.8570942 139.525135 16.8570942 131.34785 41.3769498 131.34785 41.3769498 123.170565"></polygon>
                <polygon id="Stroke-57" stroke="#231F20" points="16.8574007 172.216082 16.8574007 229.475478 25.0306859 229.475478 25.0306859 172.216082 25.0306859 164.057196 25.0306859 155.645835 16.8574007 155.645835 16.8574007 164.057196 8.68411552 164.057196 8.68411552 139.52534 16.8574007 139.52534 16.8574007 131.348054 41.3772563 131.348054 41.3772563 123.170769 16.8574007 123.170769 16.8574007 130.772578 8.10892058 130.772578 8.10892058 139.52534 0.510830325 139.52534 0.510830325 245.830049 8.68411552 245.830049 8.68411552 172.216082"></polygon>
                <polygon id="Fill-59" fill="#FFFFFF" points="49.0243863 74.8957562 66.3926173 74.8957562 66.3926173 55.4747036 49.0243863 55.4747036"></polygon>
                <polygon id="Fill-60" fill="#000000" points="49.5505415 57.7520776 65.8971119 57.7520776 65.8971119 51.7785706 49.5505415 51.7785706"></polygon>
                <polygon id="Stroke-61" stroke="#231F20" points="49.5505415 57.7520776 65.8971119 57.7520776 65.8971119 51.7785706 49.5505415 51.7785706"></polygon>
                <polygon id="Fill-62" fill="#000000" points="82.2283574 57.7520776 98.0640975 57.7520776 98.0640975 51.7785706 82.2283574 51.7785706"></polygon>
                <polygon id="Stroke-63" stroke="#231F20" points="82.2283574 57.7520776 98.0640975 57.7520776 98.0640975 51.7785706 82.2283574 51.7785706"></polygon>
                <polygon id="Fill-64" fill="#000000" points="57.7994296 70.8071136 66.3926173 70.8071136 66.3926173 62.4785485 57.7994296 62.4785485"></polygon>
                <polygon id="Fill-65" fill="#000000" points="90.4016426 70.6353906 98.0640975 70.6353906 98.0640975 62.9896288 90.4016426 62.9896288"></polygon>
                <polygon id="Fill-66" fill="#929497" points="27.9955451 85.7981219 30.8051119 85.7981219 30.8051119 83.3060942 27.9955451 83.3060942"></polygon>
                <polygon id="Fill-67" fill="#48CFAD" points="165.241555 144.252424 165.241555 168.017659 177.91219 168.017659 177.91219 220.403393 184.202555 226.695814 187.617966 232.924861 251.728194 245.44633 253.260684 207.530302 254.53776 160.606994 268.585594 157.540512 268.585594 137.352839 268.585594 131.027709 266.422739 131.027709 263.094168 126.364612 251.472778 126.364612 249.890226 122.851446 205.08632 122.851446 200.999677 122.851446 197.022352 126.829695 178.167605 128.920014 176.479822 130.453255 170.760565 136.330679"></polygon>
                <polygon id="Fill-68" fill="#B27239" points="165.652058 245.509704 184.652903 245.509704 184.652903 169.549878 165.652058 169.549878"></polygon>
                <polygon id="Fill-69" fill="#B27239" points="187.618783 368.105609 255.024888 368.105609 255.024888 245.70187 187.618783 245.70187"></polygon>
                <polygon id="Fill-70" fill="#B27239" points="255.023866 245.509704 274.024711 245.509704 274.024711 158.306111 255.023866 158.306111"></polygon>
                <polygon id="Fill-71" fill="#B27239" points="183.65944 35.2645429 183.65944 98.31959 190.938772 98.31959 190.938772 107.267584 198.218104 107.267584 198.218104 114.674161 207.41305 114.674161 207.41305 122.851446 234.714887 122.851446 234.714887 114.674161 250.039797 114.674161 250.039797 107.267584 258.366331 107.267584 258.366331 98.31959 263.093555 98.31959 263.093555 35.2645429"></polygon>
                <polygon id="Fill-72" fill="#FFFFFF" points="241.339744 78.3261274 258.707975 78.3261274 258.707975 66.2472548 241.339744 66.2472548"></polygon>
                <polygon id="Fill-73" fill="#000000" points="250.023859 15.9078864 266.37043 15.9078864 266.37043 8.36945152 250.023859 8.36945152"></polygon>
                <polygon id="Fill-74" fill="#000000" points="266.37043 33.859072 273.905177 33.859072 273.905177 15.5225319 266.37043 15.5225319"></polygon>
                <polygon id="Fill-75" fill="#000000" points="268.58539 62.4795706 276.120137 62.4795706 276.120137 41.0765485 268.58539 41.0765485"></polygon>
                <polygon id="Fill-76" fill="#000000" points="258.707975 41.3975069 273.905177 41.3975069 273.905177 33.859072 258.707975 33.859072"></polygon>
                <polygon id="Fill-77" fill="#000000" points="233.848928 8.36842936 250.126025 8.36842936 250.126025 0.82999446 233.848928 0.82999446"></polygon>
                <polygon id="Fill-78" fill="#000000" points="175.741978 124.884524 186.122051 124.884524 186.122051 108.668967 175.741978 108.668967"></polygon>
                <polygon id="Fill-79" fill="#000000" points="168.94487 63.67141 176.479617 63.67141 176.479617 41.0765485 168.94487 41.0765485"></polygon>
                <polygon id="Fill-80" fill="#000000" points="174.819419 110.39233 182.354166 110.39233 182.354166 63.6724321 174.819419 63.6724321"></polygon>
                <polygon id="Fill-81" fill="#000000" points="176.479617 42.3787812 184.995159 42.3787812 184.995159 25.1073324 176.479617 25.1073324"></polygon>
                <polygon id="Fill-82" fill="#000000" points="184.638599 25.6817867 201.598166 25.6817867 201.598166 16.4823407 184.638599 16.4823407"></polygon>
                <polygon id="Fill-83" fill="#000000" points="201.241606 16.9300471 234.206509 16.9300471 234.206509 9.39161219 201.241606 9.39161219"></polygon>
                <polygon id="Fill-84" fill="#000000" points="260.028982 131.411019 268.292173 131.411019 268.292173 122.44667 260.028982 122.44667"></polygon>
                <polygon id="Fill-85" fill="#000000" points="264.52531 110.777684 272.060058 110.777684 272.060058 98.31959 264.52531 98.31959"></polygon>
                <polygon id="Fill-86" fill="#000000" points="260.757426 122.851446 268.292173 122.851446 268.292173 110.39233 260.757426 110.39233"></polygon>
                <polygon id="Fill-87" fill="#000000" points="263.093964 98.31959 270.628711 98.31959 270.628711 62.4795706 263.093964 62.4795706"></polygon>
                <polygon id="Fill-88" fill="#FDCA00" points="251.879706 286.182601 189.490977 286.182601 189.490977 233.180504 251.879706 241.13087"></polygon>
                <polygon id="Fill-89" fill="#000000" points="273.833661 245.510726 282.541274 245.510726 282.541274 229.156155 273.833661 229.156155"></polygon>
                <polygon id="Stroke-90" stroke="#231F20" points="273.833661 245.510726 282.541274 245.510726 282.541274 229.156155 273.833661 229.156155"></polygon>
                <path d="M266.230462,131.027811 L266.230462,155.326615 L258.021419,155.326615 L258.021419,147.382382 L249.849155,147.382382 L249.849155,241.421163 L184.462874,229.155235 L184.462874,237.33252 L184.462874,245.509806 L168.115282,245.509806 L168.115282,253.688113 L184.462874,253.688113 L184.462874,351.814515 L184.462874,360.950587 L184.462874,368.169086 L266.194704,368.169086 L274.367989,368.169086 L274.367989,359.9918 L266.194704,359.9918 L266.194704,351.814515 L257.899841,351.814515 L257.899841,253.79544 L273.833661,253.79544 L273.833661,245.509806 L258.021419,245.509806 L258.021419,163.736953 L266.230462,163.736953 L266.230462,229.155235 L273.833661,229.155235 L273.833661,131.027811 L266.230462,131.027811 Z M192.636159,237.33252 L249.849155,249.598448 L249.849155,253.79544 L249.849155,351.814515 L225.328278,351.814515 L225.328278,285.28821 L217.156014,285.28821 L217.156014,351.814515 L192.636159,351.814515 L192.636159,237.33252 Z" id="Fill-92" fill="#000000"></path>
                <path d="M249.848338,351.814924 L225.328482,351.814924 L225.328482,285.287597 L217.156219,285.287597 L217.156219,351.814924 L192.636363,351.814924 L192.636363,237.332929 L249.848338,249.598857 L249.848338,245.510215 L249.848338,253.794827 L249.848338,351.814924 Z M273.833865,253.794827 L273.833865,245.510215 L258.021623,245.510215 L258.021623,163.737361 L266.230666,163.737361 L266.230666,229.155644 L273.833865,229.155644 L273.833865,131.02822 L266.230666,131.02822 L266.230666,155.326001 L258.021623,155.326001 L258.021623,147.382791 L249.848338,147.382791 L249.848338,241.421572 L184.463078,229.155644 L184.463078,237.332929 L184.463078,245.510215 L168.116508,245.510215 L168.116508,253.6875 L184.463078,253.6875 L184.463078,351.814924 L184.463078,360.950996 L184.463078,368.169494 L266.194908,368.169494 L274.368194,368.169494 L274.368194,359.992209 L266.194908,359.992209 L266.194908,351.814924 L257.900045,351.814924 L257.900045,253.794827 L273.833865,253.794827 Z" id="Stroke-93" stroke="#231F20"></path>
                <polygon id="Fill-95" fill="#000000" points="176.289282 171.896657 176.289282 229.156053 184.462567 229.156053 184.462567 171.896657 184.462567 163.73777 184.462567 155.32641 176.289282 155.32641 176.289282 163.73777 168.115997 163.73777 168.115997 139.205914 176.289282 139.205914 176.289282 131.028629 200.809138 131.028629 200.809138 122.851344 176.289282 122.851344 176.289282 130.453153 167.540802 130.453153 167.540802 139.205914 159.942712 139.205914 159.942712 245.510624 168.115997 245.510624 168.115997 171.896657"></polygon>
                <polygon id="Stroke-96" stroke="#231F20" points="176.289282 171.896657 176.289282 229.156053 184.462567 229.156053 184.462567 171.896657 184.462567 163.73777 184.462567 155.32641 176.289282 155.32641 176.289282 163.73777 168.115997 163.73777 168.115997 139.205914 176.289282 139.205914 176.289282 131.028629 200.809138 131.028629 200.809138 122.851344 176.289282 122.851344 176.289282 130.453153 167.540802 130.453153 167.540802 139.205914 159.942712 139.205914 159.942712 245.510624 168.115997 245.510624 168.115997 171.896657"></polygon>
                <polygon id="Fill-97" fill="#FFFFFF" points="208.646603 78.6675291 226.014834 78.6675291 226.014834 66.2472548 208.646603 66.2472548"></polygon>
                <polygon id="Fill-98" fill="#3B2314" points="258.366842 107.267993 250.040308 107.267993 250.040308 114.673547 234.715398 114.673547 234.715398 123.484572 249.890124 123.484572 249.890124 134.372628 252.835571 134.372628 252.835571 143.912453 258.708077 143.912453 258.708077 134.372628 261.406283 134.372628 261.406283 122.850833 261.002727 122.850833 261.002727 120.093043 261.002727 114.673547 261.002727 110.901775 264.524391 110.901775 264.524391 98.3189767 258.366842 98.3189767"></polygon>
                <polygon id="Fill-99" fill="#3B2314" points="263.094066 41.0780817 263.094066 35.265054 259.304727 35.265054 259.304727 33.9229571 266.386878 33.9229571 266.386878 15.6303698 250.057676 15.6303698 250.057676 8.36894044 233.8429 8.36894044 233.8429 15.9400845 217.346145 15.9400845 201.149759 16.5462258 201.149759 24.8737687 184.653005 25.2121039 184.653005 32.9007964 184.653005 41.0780817 176.479719 41.0780817 176.479719 63.843644 182.329748 63.843644 182.329748 78.0997188 182.304207 78.0997188 182.304207 110.585007 184.653005 110.585007 184.653005 123.484675 184.653005 134.371708 188.983824 134.371708 188.983824 145.956877 197.369615 145.956877 197.369615 134.371708 197.665896 134.371708 197.665896 123.484675 197.665896 122.850935 208.435221 122.850935 208.435221 113.247735 198.687557 113.247735 198.687557 107.268096 192.279701 107.268096 192.279701 98.3190789 193.315665 98.3190789 193.315665 89.6307133 190.939283 89.6307133 190.939283 80.537572 192.82629 80.537572 192.82629 81.9645083 200.999575 81.9645083 200.999575 65.9073864 204.136073 65.9073864 204.136073 78.0997188 209.755207 78.0997188 209.755207 61.4568989 215.37434 61.4568989 215.37434 52.8329294 221.321427 52.8329294 221.321427 41.0780817 246.364373 41.0780817 246.364373 44.0811898 254.72973 44.0811898 254.72973 55.1552784 258.911387 55.1552784 258.911387 62.4790596 261.446127 62.4790596 263.094066 62.4790596 268.585492 62.4790596 268.585492 41.0780817"></polygon>
                <polygon id="Fill-100" fill="#000000" points="218.54956 76.6804488 226.432693 76.6804488 226.432693 68.8098116 218.54956 68.8098116"></polygon>
                <polygon id="Fill-101" fill="#000000" points="251.028152 76.6804488 258.911285 76.6804488 258.911285 68.8098116 251.028152 68.8098116"></polygon>
                <polygon id="Fill-102" fill="#3B2314" points="183.658827 89.9716039 209.755105 89.9716039 209.755105 63.6724321 183.658827 63.6724321"></polygon>
                <polygon id="Fill-103" fill="#3B2314" points="187.618783 107.817507 202.943693 107.817507 202.943693 87.3947368 187.618783 87.3947368"></polygon>
                <polygon id="Fill-104" fill="#000000" points="226.262995 59.5637551 209.715158 59.868359 209.796891 64.837082 226.343706 64.5335003"></polygon>
                <polygon id="Fill-105" fill="#000000" points="258.881657 59.6162942 241.285596 59.9372526 241.366307 64.9069978 258.962368 64.5860393"></polygon>
                <polygon id="Fill-106" fill="#000000" points="51.9555307 99.1495845 58.0436065 99.1495845 58.0436065 90.9722992 51.9555307 90.9722992"></polygon>
                <polygon id="Stroke-107" stroke="#231F20" points="51.9555307 99.1495845 58.0436065 99.1495845 58.0436065 90.9722992 51.9555307 90.9722992"></polygon>
                <polygon id="Fill-108" fill="#000000" points="81.7175271 99.1495845 87.3509639 99.1495845 87.3509639 90.9722992 81.7175271 90.9722992"></polygon>
                <polygon id="Stroke-109" stroke="#231F20" points="81.7175271 99.1495845 87.3509639 99.1495845 87.3509639 90.9722992 81.7175271 90.9722992"></polygon>
                <polygon id="Fill-110" fill="#000000" points="222.785365 104.547615 247.30522 104.547615 247.30522 98.6385042 222.785365 98.6385042"></polygon>
                <polygon id="Stroke-111" stroke="#231F20" points="222.785365 104.547615 247.30522 104.547615 247.30522 98.6385042 222.785365 98.6385042"></polygon>
                <polygon id="Fill-112" fill="#000000" points="217.017069 99.1495845 223.105144 99.1495845 223.105144 90.9722992 217.017069 90.9722992"></polygon>
                <polygon id="Stroke-113" stroke="#231F20" points="217.017069 99.1495845 223.105144 99.1495845 223.105144 90.9722992 217.017069 90.9722992"></polygon>
                <polygon id="Fill-114" fill="#000000" points="246.779065 99.1495845 252.412502 99.1495845 252.412502 90.9722992 246.779065 90.9722992"></polygon>
                <polygon id="Stroke-115" stroke="#231F20" points="246.779065 99.1495845 252.412502 99.1495845 252.412502 90.9722992 246.779065 90.9722992"></polygon>
            </g>
        </g>
    </g>
</svg>