<?xml version="1.0" encoding="UTF-8"?>
<svg width="305px" height="369px" viewBox="0 0 305 369" version="1.1" xmlns="http://www.w3.org/2000/svg" xmlns:xlink="http://www.w3.org/1999/xlink">
    <!-- Generator: Sketch 48.2 (47327) - http://www.bohemiancoding.com/sketch -->
    <title>smiling-people-1</title>
    <desc>Created with Sketch.</desc>
    <defs></defs>
    <g id="Page-1" stroke="none" stroke-width="1" fill="none" fill-rule="evenodd">
        <g id="smiling-people-1">
            <g id="Page-1">
                <polygon id="Fill-1" fill="#FDCA00" points="113.5 145.1875 113.5 168.4375 101.098 168.4375 101.098 219.6875 94.941 225.8435 91.598 231.9375 31.848 235.1875 27.348 207.0935 26.098 161.1875 12.348 158.1875 12.348 138.4375 12.348 132.2495 14.465 132.2495 17.723 127.6875 29.098 127.6875 30.646 124.2505 74.5 124.2505 78.5 124.2505 82.392 128.1425 100.848 130.1875 102.5 131.6875 108.098 137.4375"></polygon>
                <polygon id="Fill-2" fill="#E8AA72" points="17.7226 38.5625 95.4726 38.5625 95.4726 100.2505 88.3476 100.2505 88.3476 109.0045 81.2226 109.0045 81.2226 116.2505 72.2226 116.2505 72.2226 124.2505 45.4996 124.2505 45.4996 116.2505 30.4996 116.2505 30.4996 109.0045 22.3496 109.0045 22.3496 100.2505 17.7226 100.2505"></polygon>
                <polygon id="Fill-3" fill="#C3996B" points="17.7226 82.8545 17.7226 100.2505 22.3496 100.2505 22.3496 109.0045 30.4996 109.0045 30.4996 116.2505 81.2226 116.2505 81.2226 109.0045 86.4996 109.0045 86.4996 100.2505 94.4996 100.2505 94.4996 91.7505 86.4996 91.7505 86.4996 84.2505 23.9316 84.2505 23.9316 82.8545"></polygon>
                <polygon id="Fill-4" fill="#E8AA72" points="94.5 244.25 113.098 244.25 113.098 169.937 94.5 169.937"></polygon>
                <polygon id="Fill-5" fill="#1B75BB" points="25.621 351.688 91.598 351.688 91.598 231.938 25.621 231.938"></polygon>
                <polygon id="Fill-6" fill="#E8AA72" points="7.023 244.25 25.621 244.25 25.621 158.937 7.023 158.937"></polygon>
                <polygon id="Fill-7" fill="#FFFFFF" points="22.016 76.688 39.016 76.688 39.016 51.688 22.016 51.688"></polygon>
                <polygon id="Fill-8" fill="#FFFFFF" points="54.016 77.022 71.016 77.022 71.016 58.022 54.016 58.022"></polygon>
                <polygon id="Fill-9" fill="#A87C4F" points="15.0351 65.1875 12.3471 65.1875 12.3471 48.7675 14.5001 48.7675 14.5001 37.2505 14.5001 36.2505 14.5001 19.3545 30.4821 19.3545 30.4821 12.2495 46.3531 12.2495 46.3531 19.6575 62.5001 19.6575 62.5001 12.2495 70.5001 12.2495 70.5001 20.2495 78.3531 20.2495 78.3531 28.3965 86.5001 28.3965 86.5001 20.7285 94.5001 20.7285 94.5001 36.2505 101.5001 36.2505 101.5001 44.2505 109.5001 44.2505 109.5001 66.5215 103.7751 66.5215 103.7751 85.2855 100.9311 85.2855 100.9311 95.9995 97.7151 95.9995 97.7151 110.8545 97.7151 118.8545 97.7151 124.2505 95.8511 124.2505 95.8511 118.8545 93.9881 118.8545 93.9881 110.8545 90.2621 110.8545 90.2621 95.9995 94.5001 95.9995 94.5001 85.2855 94.5001 68.2505 86.5001 68.2505 86.5001 84.2495 78.5001 84.2495 78.5001 44.2505 23.9311 44.2505 23.9311 51.6875 17.7231 51.6875 17.7231 64.1875 19.2151 64.1875 19.2151 72.9475 17.7231 72.9475 17.7231 77.0215 18.8061 77.0215 18.8061 84.2495 14.4451 84.2495 14.4451 77.0215 15.0351 77.0215 15.0351 72.9475"></polygon>
                <polygon id="Fill-10" fill="#A87C4F" points="97.715 129.962 98.809 129.962 98.809 124.25 97.715 124.25"></polygon>
                <polygon id="Fill-11" fill="#000000" points="109.598 67.25 117.598 67.25 117.598 44.25 109.598 44.25"></polygon>
                <polygon id="Stroke-12" stroke="#231F20" points="109.598 67.25 117.598 67.25 117.598 44.25 109.598 44.25"></polygon>
                <polygon id="Fill-13" fill="#000000" points="102.598 85.25 109.598 85.25 109.598 66.522 102.598 66.522"></polygon>
                <polygon id="Stroke-14" stroke="#231F20" points="102.598 85.25 109.598 85.25 109.598 66.522 102.598 66.522"></polygon>
                <polygon id="Fill-15" fill="#000000" points="101.598 44.25 109.598 44.25 109.598 36.25 101.598 36.25"></polygon>
                <polygon id="Stroke-16" stroke="#231F20" points="101.598 44.25 109.598 44.25 109.598 36.25 101.598 36.25"></polygon>
                <polygon id="Fill-17" fill="#000000" points="94.742 36.25 101.742 36.25 101.742 20.728 94.742 20.728"></polygon>
                <polygon id="Stroke-18" stroke="#231F20" points="94.742 36.25 101.742 36.25 101.742 20.728 94.742 20.728"></polygon>
                <polygon id="Fill-19" fill="#000000" points="86.264 20.728 94.743 20.728 94.743 12.25 86.264 12.25"></polygon>
                <polygon id="Stroke-20" stroke="#231F20" points="86.264 20.728 94.743 20.728 94.743 12.25 86.264 12.25"></polygon>
                <polygon id="Fill-21" fill="#000000" points="78.596 28.396 86.264 28.396 86.264 20.728 78.596 20.728"></polygon>
                <polygon id="Stroke-22" stroke="#231F20" points="78.596 28.396 86.264 28.396 86.264 20.728 78.596 20.728"></polygon>
                <polygon id="Fill-23" fill="#000000" points="70.117 20.728 78.596 20.728 78.596 12.25 70.117 12.25"></polygon>
                <polygon id="Stroke-24" stroke="#231F20" points="70.117 20.728 78.596 20.728 78.596 12.25 70.117 12.25"></polygon>
                <polygon id="Fill-25" fill="#000000" points="62.742 12.25 70.117 12.25 70.117 4.875 62.742 4.875"></polygon>
                <polygon id="Stroke-26" stroke="#231F20" points="62.742 12.25 70.117 12.25 70.117 4.875 62.742 4.875"></polygon>
                <polygon id="Fill-27" fill="#000000" points="46.596 20.25 62.742 20.25 62.742 12.25 46.596 12.25"></polygon>
                <polygon id="Stroke-28" stroke="#231F20" points="46.596 20.25 62.742 20.25 62.742 12.25 46.596 12.25"></polygon>
                <polygon id="Fill-29" fill="#000000" points="30.742 12.25 46.596 12.25 46.596 4.25 30.742 4.25"></polygon>
                <polygon id="Stroke-30" stroke="#231F20" points="30.742 12.25 46.596 12.25 46.596 4.25 30.742 4.25"></polygon>
                <polygon id="Fill-31" fill="#000000" points="14.742 20.25 30.742 20.25 30.742 12.25 14.742 12.25"></polygon>
                <polygon id="Stroke-32" stroke="#231F20" points="14.742 20.25 30.742 20.25 30.742 12.25 14.742 12.25"></polygon>
                <polygon id="Fill-33" fill="#000000" points="10.742 36.25 14.742 36.25 14.742 20.25 10.742 20.25"></polygon>
                <polygon id="Stroke-34" stroke="#231F20" points="10.742 36.25 14.742 36.25 14.742 20.25 10.742 20.25"></polygon>
                <polygon id="Fill-35" fill="#000000" points="8.348 48.768 14.5 48.768 14.5 36.25 8.348 36.25"></polygon>
                <polygon id="Stroke-36" stroke="#231F20" points="8.348 48.768 14.5 48.768 14.5 36.25 8.348 36.25"></polygon>
                <polygon id="Fill-37" fill="#000000" points="4.348 65.188 12.348 65.188 12.348 48.768 4.348 48.768"></polygon>
                <polygon id="Fill-38" fill="#000000" points="7.742 77.021 15.742 77.021 15.742 64.737 7.742 64.737"></polygon>
                <polygon id="Fill-39" fill="#000000" points="0.5 244.25 9.023 244.25 9.023 228.251 0.5 228.251"></polygon>
                <polygon id="Stroke-40" stroke="#231F20" points="0.5 244.25 9.023 244.25 9.023 228.25 0.5 228.25"></polygon>
                <path d="M30.5976,252.3555 L30.5976,244.2505 L30.5976,236.2505 L86.5976,236.2505 L86.5976,348.2505 L62.5976,348.2505 L62.5976,268.2505 L54.5976,268.2505 L54.5976,259.9475 L54.5976,252.2505 L38.9316,252.2505 L38.9316,259.9475 L46.5976,259.9475 L46.5976,276.2505 L54.5976,276.2505 L54.5976,348.2505 L30.5976,348.2505 L30.5976,252.3555 Z M22.7166,252.3555 L22.7166,348.2505 L14.5976,348.2505 L14.5976,356.2505 L6.5976,356.2505 L6.5976,364.2505 L14.5976,364.2505 L94.5976,364.2505 L94.5976,357.1875 L94.5976,348.2505 L94.5976,252.2505 L110.5976,252.2505 L110.5976,244.2505 L94.5976,244.2505 L94.5976,236.2505 L94.5976,228.2505 L30.5976,228.2505 L30.5976,148.2505 L22.5976,148.2505 L22.5976,156.0215 L14.5626,156.0215 L14.5626,132.2505 L7.1206,132.2505 L7.1206,228.2505 L14.5626,228.2505 L14.5626,164.2505 L22.5976,164.2505 L22.5976,244.2505 L7.1206,244.2505 L7.1206,252.3555 L22.7166,252.3555 Z" id="Fill-42" fill="#000000"></path>
                <path d="M30.5976,252.3555 L30.5976,244.2505 L30.5976,236.2505 L86.5976,236.2505 L86.5976,348.2505 L62.5976,348.2505 L62.5976,268.2505 L54.5976,268.2505 L54.5976,259.9475 L54.5976,252.2505 L38.9316,252.2505 L38.9316,259.9475 L46.5976,259.9475 L46.5976,276.2505 L54.5976,276.2505 L54.5976,348.2505 L30.5976,348.2505 L30.5976,252.3555 Z M22.7166,252.3555 L22.7166,348.2505 L14.5976,348.2505 L14.5976,356.2505 L6.5976,356.2505 L6.5976,364.2505 L14.5976,364.2505 L94.5976,364.2505 L94.5976,357.1875 L94.5976,348.2505 L94.5976,252.2505 L110.5976,252.2505 L110.5976,244.2505 L94.5976,244.2505 L94.5976,236.2505 L94.5976,228.2505 L30.5976,228.2505 L30.5976,148.2505 L22.5976,148.2505 L22.5976,156.0215 L14.5626,156.0215 L14.5626,132.2505 L7.1206,132.2505 L7.1206,228.2505 L14.5626,228.2505 L14.5626,164.2505 L22.5976,164.2505 L22.5976,244.2505 L7.1206,244.2505 L7.1206,252.3555 L22.7166,252.3555 Z" id="Stroke-43" stroke="#231F20"></path>
                <polygon id="Fill-44" fill="#000000" points="102.5976 172.2324 102.5976 228.2504 94.5976 228.2504 94.5976 172.2324 94.5976 164.2504 94.5976 156.0214 102.5976 156.0214 102.5976 164.2504 110.5976 164.2504 110.5976 140.2504 102.5976 140.2504 102.5976 132.2504 78.5976 132.2504 78.5976 124.2504 102.5976 124.2504 102.5976 131.6874 111.1606 131.6874 111.1606 140.2504 118.5976 140.2504 118.5976 244.2504 110.5976 244.2504 110.5976 172.2324"></polygon>
                <polygon id="Stroke-45" stroke="#231F20" points="102.5976 172.2324 102.5976 228.2504 94.5976 228.2504 94.5976 172.2324 94.5976 164.2504 94.5976 156.0214 102.5976 156.0214 102.5976 164.2504 110.5976 164.2504 110.5976 140.2504 102.5976 140.2504 102.5976 132.2504 78.5976 132.2504 78.5976 124.2504 102.5976 124.2504 102.5976 131.6874 111.1606 131.6874 111.1606 140.2504 118.5976 140.2504 118.5976 244.2504 110.5976 244.2504 110.5976 172.2324"></polygon>
                <polygon id="Fill-46" fill="#000000" points="54.016 60.25 71.245 60.25 71.245 52.25 54.016 52.25"></polygon>
                <polygon id="Stroke-47" stroke="#231F20" points="54.016 60.25 71.245 60.25 71.245 52.25 54.016 52.25"></polygon>
                <polygon id="Fill-48" fill="#000000" points="22.016 60.25 39.426 60.25 39.426 52.25 22.016 52.25"></polygon>
                <polygon id="Stroke-49" stroke="#231F20" points="22.016 60.25 39.426 60.25 39.426 52.25 22.016 52.25"></polygon>
                <polygon id="Fill-50" fill="#000000" points="23.016 72.323 31.428 72.323 31.428 64.177 23.016 64.177"></polygon>
                <polygon id="Fill-51" fill="#000000" points="54.83 72.947 63.242 72.947 63.242 64.8 54.83 64.8"></polygon>
                <polygon id="Fill-52" fill="#000000" points="10.742 84.25 14.445 84.25 14.445 76.688 10.742 76.688"></polygon>
                <polygon id="Stroke-53" stroke="#231F20" points="10.742 84.25 14.445 84.25 14.445 76.688 10.742 76.688"></polygon>
                <polygon id="Fill-54" fill="#000000" points="10.223 100.25 17.723 100.25 17.723 84.25 10.223 84.25"></polygon>
                <polygon id="Fill-55" fill="#000000" points="14.5 109.005 22.35 109.005 22.35 100.25 14.5 100.25"></polygon>
                <polygon id="Fill-56" fill="#000000" points="19.723 116.25 30.5 116.25 30.5 109.005 19.723 109.005"></polygon>
                <polygon id="Fill-57" fill="#000000" points="29.973 124.25 45.5 124.25 45.5 116.25 29.973 116.25"></polygon>
                <polygon id="Fill-58" fill="#000000" points="6.598 128.188 30.516 128.188 30.516 121.552 6.598 121.552"></polygon>
                <polygon id="Fill-59" fill="#000000" points="6.597 133.313 15.035 133.313 15.035 126.438 6.597 126.438"></polygon>
                <polygon id="Fill-60" fill="#000000" points="72.223 124.25 81.348 124.25 81.348 116.25 72.223 116.25"></polygon>
                <polygon id="Fill-61" fill="#000000" points="88.348 109.005 90.262 109.005 90.262 100.25 88.348 100.25"></polygon>
                <polygon id="Fill-62" fill="#000000" points="81.223 110.854 90.262 110.854 90.262 109.004 81.223 109.004"></polygon>
                <polygon id="Fill-63" fill="#000000" points="81.223 116.25 84.098 116.25 84.098 110.854 81.223 110.854"></polygon>
                <polygon id="Fill-64" fill="#000000" points="82.66 118.855 93.988 118.855 93.988 110.855 82.66 110.855"></polygon>
                <polygon id="Fill-65" fill="#000000" points="91.168 124.25 96.402 124.25 96.402 118.855 91.168 118.855"></polygon>
                <polygon id="Fill-66" fill="#000000" points="97.715 124.25 106.098 124.25 106.098 85.285 97.715 85.285"></polygon>
                <polygon id="Fill-67" fill="#000000" points="265.338 129.25 274.338 129.25 274.338 106.125 265.338 106.125"></polygon>
                <polygon id="Fill-68" fill="#000000" points="279.963 129.25 288.963 129.25 288.963 101 279.963 101"></polygon>
                <polygon id="Fill-69" fill="#000000" points="286.713 126.625 304.713 126.625 304.713 120 286.713 120"></polygon>
                <polygon id="Fill-70" fill="#000000" points="265.463 135.5 288.963 135.5 288.963 128.875 265.463 128.875"></polygon>
                <polygon id="Fill-71" fill="#000000" points="257.213 121.125 265.713 121.125 265.713 114.5 257.213 114.5"></polygon>
                <polygon id="Fill-72" fill="#000000" points="248.838 115.25 257.338 115.25 257.338 105.875 248.838 105.875"></polygon>
                <polygon id="Fill-73" fill="#000000" points="245.963 112.625 254.463 112.625 254.463 103.25 245.963 103.25"></polygon>
                <polygon id="Fill-74" fill="#000000" points="238.588 121 261.088 121 261.088 111.25 238.588 111.25"></polygon>
                <polygon id="Fill-75" fill="#000000" points="244.309 106.5 265.963 106.5 265.963 93 244.309 93"></polygon>
                <polygon id="Fill-76" fill="#000000" points="245.588 93 259.838 93 259.838 41.5 245.588 41.5"></polygon>
                <polygon id="Fill-77" fill="#D91C5C" points="262.6152 148.9375 262.6152 172.1875 250.2132 172.1875 250.2132 223.4375 244.0562 229.5935 240.7132 235.6875 175.7132 258.4375 176.4632 210.8435 175.2132 164.9375 161.4632 161.9375 161.4632 142.1875 161.4632 135.9995 163.5802 135.9995 166.8382 131.4375 178.2132 131.4375 179.7622 128.0005 223.6152 128.0005 227.6152 128.0005 231.5082 131.8925 249.9632 133.9375 251.6152 135.4375 257.2132 141.1875"></polygon>
                <polygon id="Fill-78" fill="#FFF4DC" points="166.8379 42.3125 244.5879 42.3125 244.5879 104.0005 237.4629 104.0005 237.4629 112.7545 230.3379 112.7545 230.3379 120.0005 221.3379 120.0005 221.3379 128.0005 194.6149 128.0005 194.6149 120.0005 179.6149 120.0005 179.6149 112.7545 171.4649 112.7545 171.4649 104.0005 166.8379 104.0005"></polygon>
                <polygon id="Fill-79" fill="#FFF4DC" points="243.615 248 262.213 248 262.213 173.687 243.615 173.687"></polygon>
                <polygon id="Fill-80" fill="#2F4858" points="174.7363 355.4375 240.7133 355.4375 240.7133 235.6875 174.7363 259.6875"></polygon>
                <polygon id="Fill-81" fill="#FFF4DC" points="156.139 248 174.737 248 174.737 162.687 156.139 162.687"></polygon>
                <polygon id="Fill-82" fill="#E3B50A" points="235.136 104.25 247.396 104.25 247.396 95.5 235.136 95.5"></polygon>
                <polygon id="Fill-83" fill="#E3B50A" points="227.224 24.688 235.703 24.688 235.703 16.188 227.224 16.188"></polygon>
                <polygon id="Fill-84" fill="#E3B50A" points="259.974 92.854 283.621 92.854 283.621 57.188 259.974 57.188"></polygon>
                <polygon id="Fill-85" fill="#E3B50A" points="244.433 104.354 252.912 104.354 252.912 71.854 244.433 71.854"></polygon>
                <polygon id="Fill-86" fill="#E3B50A" points="237.455 112.439 245.934 112.439 245.934 103.772 237.455 103.772"></polygon>
                <polygon id="Fill-87" fill="#E3B50A" points="230.472 120.689 238.951 120.689 238.951 112.272 230.472 112.272"></polygon>
                <polygon id="Fill-88" fill="#E3B50A" points="257.223 114.939 265.701 114.939 265.701 106.022 257.223 106.022"></polygon>
                <polygon id="Fill-89" fill="#E3B50A" points="270.974 66.272 292.119 66.272 292.119 57.772 270.974 57.772"></polygon>
                <polygon id="Fill-90" fill="#E3B50A" points="243.308 71.939 252.912 71.939 252.912 63.439 243.308 63.439"></polygon>
                <polygon id="Fill-91" fill="#E3B50A" points="257.059 57.689 269.662 57.689 269.662 49.189 257.059 49.189"></polygon>
                <polygon id="Fill-92" fill="#E3B50A" points="257.309 92.939 266.912 92.939 266.912 57.689 257.309 57.689"></polygon>
                <polygon id="Fill-93" fill="#E3B50A" points="279.309 92.939 288.912 92.939 288.912 65.689 279.309 65.689"></polygon>
                <polygon id="Fill-94" fill="#E3B50A" points="279.309 101.189 289.037 101.189 289.037 92.689 279.309 92.689"></polygon>
                <polygon id="Fill-95" fill="#E3B50A" points="265.559 106.439 273.912 106.439 273.912 92.689 265.559 92.689"></polygon>
                <polygon id="Fill-96" fill="#E3B50A" points="273.83 129.23 282.184 129.23 282.184 91.563 273.83 91.563"></polygon>
                <polygon id="Fill-97" fill="#E3B50A" points="287.734 120.313 296.287 120.313 296.287 66.063 287.734 66.063"></polygon>
                <polygon id="Fill-98" fill="#E3B50A" points="239.308 63.689 248.912 63.689 248.912 55.189 239.308 55.189"></polygon>
                <polygon id="Fill-99" fill="#E3B50A" points="236.308 59.189 245.912 59.189 245.912 50.689 236.308 50.689"></polygon>
                <polygon id="Fill-100" fill="#E3B50A" points="245.7031 7.6875 245.7031 15.9375 251.4531 15.9375 251.4531 16.1875 259.7031 16.1875 259.7031 24.6875 267.7031 24.6875 267.7031 32.6875 275.9531 32.6875 275.9531 41.4375 284.4531 41.4375 284.4531 49.9375 284.2031 49.9375 284.2031 57.9375 266.7241 57.9375 266.7241 49.9375 259.7241 49.9375 259.7241 41.6875 250.9741 41.6875 250.9741 32.6875 251.2241 32.6875 251.2241 25.1875 250.7241 25.1875 250.7241 24.4375 242.9741 24.4375 242.9741 16.1875 237.2241 16.1875 237.2241 7.6875"></polygon>
                <polygon id="Fill-101" fill="#E51675" points="229.474 16.438 237.953 16.438 237.953 7.938 229.474 7.938"></polygon>
                <polygon id="Fill-102" fill="#E51675" points="234.955 25.188 243.434 25.188 243.434 16.188 234.955 16.188"></polygon>
                <polygon id="Fill-103" fill="#E51675" points="242.205 32.938 251.434 32.938 251.434 24.438 242.205 24.438"></polygon>
                <polygon id="Fill-104" fill="#E3B50A" points="221.474 16.438 229.953 16.438 229.953 7.938 221.474 7.938"></polygon>
                <path d="M227.469,32.147 L227.475,32.147 L227.475,24.438 L227.469,24.438 L227.469,32.147 Z M163.615,23.104 L163.615,41 L170.547,41 L170.547,48 L227.615,48 L227.615,88 L235.615,88 L235.615,72 L243.615,72 L243.434,63.563 L243.434,47.438 L243.615,40 L243.615,24.478 L235.953,24.478 L235.953,24.438 L227.703,24.438 L227.703,15.938 L222.203,15.938 L222.203,7.688 L210.475,7.688 L210.475,16 L184.598,16 L184.598,23.104 L163.615,23.104 Z" id="Fill-105" fill="#E3B50A"></path>
                <polygon id="Fill-106" fill="#FFFFFF" points="171.131 80.438 188.131 80.438 188.131 62.438 171.131 62.438"></polygon>
                <polygon id="Fill-107" fill="#000000" points="296.212 120.5 304.212 120.5 304.212 66.5 296.212 66.5"></polygon>
                <polygon id="Stroke-108" stroke="#231F20" points="296.213 120.5 304.213 120.5 304.213 66.5 296.213 66.5"></polygon>
                <polygon id="Fill-110" fill="#000000" points="227.713 120 235.713 120 235.713 112 227.713 112"></polygon>
                <polygon id="Stroke-111" stroke="#231F20" points="227.713 120 235.713 120 235.713 112 227.713 112"></polygon>
                <polygon id="Fill-112" fill="#000000" points="233.713 127.333 241.713 127.333 241.713 119.333 233.713 119.333"></polygon>
                <polygon id="Stroke-113" stroke="#231F20" points="233.713 127.333 241.713 127.333 241.713 119.333 233.713 119.333"></polygon>
                <polygon id="Fill-114" fill="#000000" points="219.713 128 227.713 128 227.713 120 219.713 120"></polygon>
                <polygon id="Stroke-115" stroke="#231F20" points="219.713 128 227.713 128 227.713 120 219.713 120"></polygon>
                <polygon id="Fill-116" fill="#000000" points="291.213 66 300.213 66 300.213 58 291.213 58"></polygon>
                <polygon id="Stroke-117" stroke="#231F20" points="291.213 66 300.213 66 300.213 58 291.213 58"></polygon>
                <polygon id="Fill-118" fill="#000000" points="203.213 15.75 212.213 15.75 212.213 7.75 203.213 7.75"></polygon>
                <polygon id="Fill-119" fill="#000000" points="242.963 50.875 251.963 50.875 251.963 32.125 242.963 32.125"></polygon>
                <polygon id="Fill-120" fill="#000000" points="275.213 41.25 284.213 41.25 284.213 33.25 275.213 33.25"></polygon>
                <polygon id="Stroke-121" stroke="#231F20" points="275.213 41.25 284.213 41.25 284.213 33.25 275.213 33.25"></polygon>
                <polygon id="Fill-122" fill="#000000" points="267.463 33.25 276.463 33.25 276.463 25.25 267.463 25.25"></polygon>
                <polygon id="Stroke-123" stroke="#231F20" points="267.463 33.25 276.463 33.25 276.463 25.25 267.463 25.25"></polygon>
                <polygon id="Fill-124" fill="#000000" points="259.213 25 268.213 25 268.213 17 259.213 17"></polygon>
                <polygon id="Stroke-125" stroke="#231F20" points="259.213 25 268.213 25 268.213 17 259.213 17"></polygon>
                <polygon id="Fill-126" fill="#000000" points="245.463 16.5 259.963 16.5 259.963 8.5 245.463 8.5"></polygon>
                <polygon id="Stroke-127" stroke="#231F20" points="245.463 16.5 259.963 16.5 259.963 8.5 245.463 8.5"></polygon>
                <polygon id="Fill-128" fill="#000000" points="210.213 8.5 245.963 8.5 245.963 0.5 210.213 0.5"></polygon>
                <polygon id="Stroke-129" stroke="#231F20" points="210.213 8.5 245.963 8.5 245.963 0.5 210.213 0.5"></polygon>
                <polygon id="Fill-131" fill="#000000" points="283.713 57.5 290.713 57.5 290.713 41.978 283.713 41.978"></polygon>
                <polygon id="Stroke-132" stroke="#231F20" points="283.713 57.5 290.713 57.5 290.713 41.978 283.713 41.978"></polygon>
                <polygon id="Fill-133" fill="#000000" points="195.566 24 211.712 24 211.712 16 195.566 16"></polygon>
                <polygon id="Stroke-134" stroke="#231F20" points="195.566 24 211.712 24 211.712 16 195.566 16"></polygon>
                <polygon id="Fill-135" fill="#000000" points="179.713 16 195.567 16 195.567 8 179.713 8"></polygon>
                <polygon id="Stroke-136" stroke="#231F20" points="179.713 16 195.567 16 195.567 8 179.713 8"></polygon>
                <polygon id="Fill-137" fill="#000000" points="163.713 24 184.213 24 184.213 16 163.713 16"></polygon>
                <polygon id="Stroke-138" stroke="#231F20" points="163.713 24 184.213 24 184.213 16 163.713 16"></polygon>
                <polygon id="Fill-139" fill="#000000" points="155.713 40 163.713 40 163.713 24 155.713 24"></polygon>
                <polygon id="Stroke-140" stroke="#231F20" points="155.713 40 163.713 40 163.713 24 155.713 24"></polygon>
                <path d="M171.5625,79.9996 L171.5625,64.0006 L171.5625,79.9996 Z" id="Fill-141" fill="#000000"></path>
                <path d="M171.5625,64 L171.5625,80" id="Stroke-142" stroke="#231F20"></path>
                <g id="Group-145" transform="translate(163.000000, 39.500000)">
                    <polyline id="Fill-143" fill="#000000" points="8.5625 40.5 8.5625 72.5 16.7125 72.5 16.7125 80.5 32.7125 80.5 32.7125 88.5 16.8595 88.5 16.8595 96.5 0.6775 96.5 0.6775 88.465 15.9275 88.465 15.9275 80.651 8.5625 80.651 8.5625 73.255 0.7125 73.255 0.7125 0.5 8.5625 0.5 8.5625 24.5"></polyline>
                    <polyline id="Stroke-144" stroke="#231F20" points="8.5625 40.5 8.5625 72.5 16.7125 72.5 16.7125 80.5 32.7125 80.5 32.7125 88.5 16.8595 88.5 16.8595 96.5 0.6775 96.5 0.6775 88.465 15.9275 88.465 15.9275 80.651 8.5625 80.651 8.5625 73.255 0.7125 73.255 0.7125 0.5 8.5625 0.5 8.5625 24.5"></polyline>
                </g>
                <polygon id="Fill-146" fill="#000000" points="147.713 248 156.236 248 156.236 232 147.713 232"></polygon>
                <polygon id="Stroke-147" stroke="#231F20" points="147.713 248 156.236 248 156.236 232 147.713 232"></polygon>
                <path d="M156.2364,136.0003 L156.2364,231.9993 L163.6774,231.9993 L163.6774,167.9993 L171.7124,167.9993 L171.7124,248.0003 L156.2364,248.0003 L156.2364,256.1053 L171.8344,256.1053 L171.8344,352.0003 L163.7124,352.0003 L163.7124,360.0003 L155.7124,360.0003 L155.7124,367.9993 L163.7124,367.9993 L243.7124,367.9993 L243.7124,360.9373 L243.7124,352.0003 L243.7124,256.0003 L259.7134,256.0003 L259.7134,248.0003 L243.7124,248.0003 L243.7124,239.9993 L243.7124,231.9993 L179.7134,252.0003 L179.7134,151.9993 L171.7124,151.9993 L171.7124,159.7713 L163.6774,159.7713 L163.6774,136.0003 L156.2364,136.0003 Z M235.7124,239.9993 L235.7124,352.0003 L211.7134,352.0003 L211.7134,272.0003 L203.7134,272.0003 L203.7134,352.0003 L179.7134,352.0003 L179.7134,259.9993 L235.7124,239.9993 Z" id="Fill-148" fill="#000000"></path>
                <path d="M179.7129,256.1055 L179.7129,248.0005 L179.7129,260.0005 L235.7129,240.0005 L235.7129,352.0005 L211.7129,352.0005 L211.7129,272.0005 L203.7129,272.0005 L203.7129,352.0005 L179.7129,352.0005 L179.7129,256.1055 Z M171.8339,256.1055 L171.8339,352.0005 L163.7129,352.0005 L163.7129,360.0005 L155.7129,360.0005 L155.7129,368.0005 L163.7129,368.0005 L243.7129,368.0005 L243.7129,360.9375 L243.7129,352.0005 L243.7129,256.0005 L259.7129,256.0005 L259.7129,248.0005 L243.7129,248.0005 L243.7129,240.0005 L243.7129,232.0005 L179.7129,252.0005 L179.7129,152.0005 L171.7129,152.0005 L171.7129,159.7715 L163.6779,159.7715 L163.6779,136.0005 L156.2359,136.0005 L156.2359,232.0005 L163.6779,232.0005 L163.6779,168.0005 L171.7129,168.0005 L171.7129,248.0005 L156.2359,248.0005 L156.2359,256.1055 L171.8339,256.1055 Z" id="Stroke-149" stroke="#231F20"></path>
                <polygon id="Fill-151" fill="#000000" points="251.7129 175.9824 251.7129 232.0004 243.7129 232.0004 243.7129 175.9824 243.7129 168.0004 243.7129 159.7714 251.7129 159.7714 251.7129 168.0004 259.7129 168.0004 259.7129 144.0004 251.7129 144.0004 251.7129 136.0004 227.7129 136.0004 227.7129 128.0004 251.7129 128.0004 251.7129 135.4374 260.2759 135.4374 260.2759 144.0004 267.7129 144.0004 267.7129 248.0004 259.7129 248.0004 259.7129 175.9824"></polygon>
                <polygon id="Stroke-152" stroke="#231F20" points="251.7129 175.9824 251.7129 232.0004 243.7129 232.0004 243.7129 175.9824 243.7129 168.0004 243.7129 159.7714 251.7129 159.7714 251.7129 168.0004 259.7129 168.0004 259.7129 144.0004 251.7129 144.0004 251.7129 136.0004 227.7129 136.0004 227.7129 128.0004 251.7129 128.0004 251.7129 135.4374 260.2759 135.4374 260.2759 144.0004 267.7129 144.0004 267.7129 248.0004 259.7129 248.0004 259.7129 175.9824"></polygon>
                <polygon id="Fill-153" fill="#FFFFFF" points="203.131 80.772 220.131 80.772 220.131 61.772 203.131 61.772"></polygon>
                <polygon id="Fill-154" fill="#000000" points="203.213 63.615 219.213 63.615 219.213 60.012 203.213 60.012"></polygon>
                <polygon id="Stroke-155" stroke="#231F20" points="203.213 63.615 219.213 63.615 219.213 60.012 203.213 60.012"></polygon>
                <polygon id="Fill-156" fill="#000000" points="171.713 63.615 187.713 63.615 187.713 60.012 171.713 60.012"></polygon>
                <polygon id="Stroke-157" stroke="#231F20" points="171.713 63.615 187.713 63.615 187.713 60.012 171.713 60.012"></polygon>
                <polygon id="Fill-158" fill="#000000" points="202.729 76.772 211.139 76.772 211.139 68.624 202.729 68.624"></polygon>
                <polygon id="Stroke-159" stroke="#231F20" points="202.729 76.772 211.139 76.772 211.139 68.624 202.729 68.624"></polygon>
                <polygon id="Fill-160" fill="#000000" points="172.248 76.772 180.658 76.772 180.658 68.624 172.248 68.624"></polygon>
                <polygon id="Stroke-161" stroke="#231F20" points="172.248 76.772 180.658 76.772 180.658 68.624 172.248 68.624"></polygon>
                <polygon id="Fill-162" fill="#000000" points="38.764 103.635 62.764 103.635 62.764 97.854 38.764 97.854"></polygon>
                <polygon id="Stroke-163" stroke="#231F20" points="38.764 103.635 62.764 103.635 62.764 97.854 38.764 97.854"></polygon>
                <polygon id="Fill-164" fill="#000000" points="33.117 98.354 39.076 98.354 39.076 90.354 33.117 90.354"></polygon>
                <polygon id="Stroke-165" stroke="#231F20" points="33.117 98.354 39.076 98.354 39.076 90.354 33.117 90.354"></polygon>
                <polygon id="Fill-166" fill="#000000" points="62.249 98.354 67.763 98.354 67.763 90.354 62.249 90.354"></polygon>
                <polygon id="Stroke-167" stroke="#231F20" points="62.249 98.354 67.763 98.354 67.763 90.354 62.249 90.354"></polygon>
                <polygon id="Fill-168" fill="#000000" points="184.89 106.135 208.89 106.135 208.89 100.354 184.89 100.354"></polygon>
                <polygon id="Stroke-169" stroke="#231F20" points="184.89 106.135 208.89 106.135 208.89 100.354 184.89 100.354"></polygon>
                <polygon id="Fill-170" fill="#000000" points="179.243 100.854 185.202 100.854 185.202 92.854 179.243 92.854"></polygon>
                <polygon id="Stroke-171" stroke="#231F20" points="179.243 100.854 185.202 100.854 185.202 92.854 179.243 92.854"></polygon>
                <polygon id="Fill-172" fill="#000000" points="208.375 100.854 213.889 100.854 213.889 92.854 208.375 92.854"></polygon>
                <polygon id="Stroke-173" stroke="#231F20" points="208.375 100.854 213.889 100.854 213.889 92.854 208.375 92.854"></polygon>
            </g>
        </g>
    </g>
</svg>