<?xml version="1.0" encoding="UTF-8"?>
<svg width="172px" height="61px" viewBox="0 0 172 61" version="1.1" xmlns="http://www.w3.org/2000/svg" xmlns:xlink="http://www.w3.org/1999/xlink">
    <!-- Generator: Sketch 49.3 (51167) - http://www.bohemiancoding.com/sketch -->
    <title>hire-me-button</title>
    <desc>Created with Sketch.</desc>
    <defs></defs>
    <g id="hire-me-button" stroke="none" stroke-width="1" fill="none" fill-rule="evenodd">
        <polygon id="Stroke-1" stroke="#FFFFFF" stroke-width="5.347" points="2.673 57.9256 168.431 57.9256 168.431 2.6726 2.673 2.6726"></polygon>
        <path d="M34.9125539,20.9799383 L34.9125539,27.3373602 L44.6151906,27.3373602 L44.6151906,20.9799383 C44.6151906,20.0717307 44.8195343,19.3905851 45.2282277,18.9364813 C45.6369212,18.4823775 46.1742693,18.2553289 46.8402883,18.2553289 C47.5163984,18.2553289 48.0638376,18.4798547 48.4826223,18.9289129 C48.9014069,19.3779712 49.1107961,20.0616395 49.1107961,20.9799383 L49.1107961,38.4628485 C49.1107961,39.3811473 48.8988842,40.0673384 48.4750539,40.5214422 C48.0512237,40.9755461 47.5063072,41.2025946 46.8402883,41.2025946 C46.1641781,41.2025946 45.6243072,40.9730233 45.2206594,40.5138739 C44.8170115,40.0547244 44.6151906,39.3710561 44.6151906,38.4628485 L44.6151906,31.0004461 L34.9125539,31.0004461 L34.9125539,38.4628485 C34.9125539,39.3811473 34.700642,40.0673384 34.2768117,40.5214422 C33.8529815,40.9755461 33.308065,41.2025946 32.6420461,41.2025946 C31.9659359,41.2025946 31.426065,40.9730233 31.0224172,40.5138739 C30.6187693,40.0547244 30.4169484,39.3710561 30.4169484,38.4628485 L30.4169484,20.9799383 C30.4169484,20.0717307 30.6162466,19.3905851 31.0148488,18.9364813 C31.4134511,18.4823775 31.9558447,18.2553289 32.6420461,18.2553289 C33.3181562,18.2553289 33.8655954,18.4798547 34.2843801,18.9289129 C34.7031647,19.3779712 34.9125539,20.0616395 34.9125539,20.9799383 Z M57.7841359,26.7470282 L57.7841359,38.6898993 C57.7841359,39.5173774 57.5873606,40.1430221 57.1938039,40.5668524 C56.8002473,40.9906826 56.3007405,41.2025946 55.6952688,41.2025946 C55.089797,41.2025946 54.5978585,40.9856371 54.2194387,40.5517157 C53.8410188,40.1177942 53.6518117,39.497195 53.6518117,38.6898993 L53.6518117,26.8681219 C53.6518117,26.050735 53.8410188,25.4351813 54.2194387,25.0214422 C54.5978585,24.6077032 55.089797,24.4008368 55.6952688,24.4008368 C56.3007405,24.4008368 56.8002473,24.6077032 57.1938039,25.0214422 C57.5873606,25.4351813 57.7841359,26.0103708 57.7841359,26.7470282 Z M55.7406789,22.4784735 C55.1654807,22.4784735 54.6735423,22.3018802 54.2648488,21.9486883 C53.8561554,21.5954964 53.6518117,21.0959897 53.6518117,20.4501532 C53.6518117,19.8648638 53.8612009,19.3830164 54.2799855,19.0045965 C54.6987702,18.6261767 55.1856631,18.4369696 55.7406789,18.4369696 C56.2755123,18.4369696 56.7497914,18.6085173 57.1635305,18.951618 C57.5772695,19.2947187 57.7841359,19.7942254 57.7841359,20.4501532 C57.7841359,21.0858985 57.582315,21.5828825 57.1786672,21.94112 C56.7750193,22.2993574 56.2956947,22.4784735 55.7406789,22.4784735 Z M66.1547414,35.2387274 L66.1547414,38.6898993 C66.1547414,39.5274685 65.957966,40.1556361 65.5644094,40.5744207 C65.1708527,40.9932054 64.671346,41.2025946 64.0658742,41.2025946 C63.4704936,41.2025946 62.981078,40.9906826 62.5976125,40.5668524 C62.214147,40.1430221 62.0224172,39.5173774 62.0224172,38.6898993 L62.0224172,27.185993 C62.0224172,25.3292129 62.6934717,24.4008368 64.0356008,24.4008368 C64.7218021,24.4008368 65.2162633,24.6177942 65.5189992,25.0517157 C65.8217351,25.4856371 65.9882373,26.1264185 66.0185109,26.9740789 C66.5129796,26.1264185 67.0200546,25.4856371 67.5397512,25.0517157 C68.0594478,24.6177942 68.7532071,24.4008368 69.62105,24.4008368 C70.4888929,24.4008368 71.3314951,24.6177942 72.148882,25.0517157 C72.9662689,25.4856371 73.3749563,26.0608267 73.3749563,26.7773016 C73.3749563,27.2818614 73.2008857,27.698117 72.8527395,28.0260809 C72.5045932,28.3540448 72.1287018,28.5180243 71.7250539,28.5180243 C71.573686,28.5180243 71.2078856,28.4246821 70.6276418,28.237995 C70.047398,28.0513078 69.5352775,27.9579657 69.0912648,27.9579657 C68.4857931,27.9579657 67.9913319,28.1168996 67.6078664,28.4347723 C67.2244009,28.752645 66.9267151,29.2244013 66.7148,29.8500555 C66.5028849,30.4757097 66.3565647,31.2199242 66.2758352,32.0827215 C66.1951056,32.9455188 66.1547414,33.9975102 66.1547414,35.2387274 Z M86.3925344,33.8158758 L78.3095266,33.8158758 C78.3196178,34.7543571 78.5088249,35.5818228 78.8771535,36.2982977 C79.2454822,37.0147726 79.7348979,37.5546435 80.3454152,37.9179266 C80.9559326,38.2812097 81.6295099,38.4628485 82.3661672,38.4628485 C82.8606358,38.4628485 83.3122101,38.404825 83.7209035,38.2887762 C84.129597,38.1727275 84.5256705,37.9910886 84.9091359,37.7438543 C85.2926014,37.49662 85.645788,37.2317301 85.9687063,36.9491766 C86.2916245,36.6666231 86.7104029,36.2831634 87.2250539,35.798786 C87.436969,35.6171444 87.7397004,35.526325 88.133257,35.526325 C88.5570873,35.526325 88.9001828,35.6423721 89.1625539,35.8744696 C89.424925,36.1065671 89.5561086,36.434526 89.5561086,36.8583563 C89.5561086,37.2317306 89.4097884,37.6681682 89.1171438,38.1676825 C88.8244991,38.6671967 88.3830158,39.1465213 87.7926809,39.6056707 C87.2023459,40.0648202 86.4606541,40.4457571 85.5675832,40.748493 C84.6745123,41.0512289 83.6477485,41.2025946 82.4872609,41.2025946 C79.8332763,41.2025946 77.7696576,40.4457662 76.296343,38.9320868 C74.8230283,37.4184073 74.086382,35.3648797 74.086382,32.7714422 C74.086382,31.5504075 74.2680208,30.4176877 74.6313039,29.3732489 C74.994587,28.32881 75.5243668,27.4332298 76.2206594,26.6864813 C76.9169519,25.9397328 77.7746907,25.367066 78.7939016,24.9684637 C79.8131124,24.5698615 80.9433094,24.3705633 82.1845266,24.3705633 C83.799118,24.3705633 85.1841139,24.7111361 86.3395559,25.3922918 C87.4949978,26.0734476 88.3603049,26.9538913 88.9355031,28.0336493 C89.5107013,29.1134073 89.7982961,30.2133312 89.7982961,31.3334539 C89.7982961,32.3728472 89.5006103,33.0464244 88.9052297,33.3542059 C88.3098491,33.6619874 87.4722924,33.8158758 86.3925344,33.8158758 Z M78.3095266,31.4696844 L85.8022023,31.4696844 C85.7012904,30.0569169 85.3203534,28.99988 84.6593801,28.2985418 C83.9984067,27.5972037 83.1280541,27.2465399 82.0482961,27.2465399 C81.0189941,27.2465399 80.1738691,27.6022492 79.5128957,28.3136786 C78.8519223,29.0251079 78.4508033,30.0770993 78.3095266,31.4696844 Z M114.773882,33.10445 L114.773882,38.5990789 C114.773882,39.4669218 114.577107,40.1177942 114.18355,40.5517157 C113.789993,40.9856371 113.270305,41.2025946 112.624468,41.2025946 C111.998814,41.2025946 111.491739,40.9856371 111.103228,40.5517157 C110.714717,40.1177942 110.520464,39.4669218 110.520464,38.5990789 L110.520464,32.0146063 C110.520464,30.9752131 110.485145,30.1679295 110.414507,29.5927313 C110.343869,29.0175331 110.152139,28.5457767 109.839312,28.1774481 C109.526485,27.8091194 109.032023,27.6249579 108.355913,27.6249579 C107.003693,27.6249579 106.113158,28.0891459 105.684282,29.017536 C105.255407,29.945926 105.040972,31.277944 105.040972,33.0136297 L105.040972,38.5990789 C105.040972,39.4568306 104.846719,40.1051803 104.458208,40.5441473 C104.069697,40.9831143 103.557577,41.2025946 102.921831,41.2025946 C102.296177,41.2025946 101.784057,40.9831143 101.385454,40.5441473 C100.986852,40.1051803 100.787554,39.4568306 100.787554,38.5990789 L100.787554,26.7773016 C100.787554,26.0002795 100.96667,25.4099534 101.324907,25.0063055 C101.683145,24.6026577 102.154901,24.4008368 102.740191,24.4008368 C103.305298,24.4008368 103.777054,24.5900438 104.155474,24.9684637 C104.533894,25.3468836 104.723101,25.8690951 104.723101,26.5351141 L104.723101,26.9286688 C105.439576,26.0709171 106.206495,25.4402268 107.023882,25.0365789 C107.841269,24.6329311 108.749463,24.4311102 109.748491,24.4311102 C110.787885,24.4311102 111.680942,24.6379766 112.427691,25.0517157 C113.174439,25.4654547 113.789993,26.0910995 114.27437,26.9286688 C114.970663,26.0810083 115.7174,25.4528408 116.514605,25.0441473 C117.311809,24.6354539 118.194776,24.4311102 119.16353,24.4311102 C120.293744,24.4311102 121.26753,24.6531132 122.084917,25.0971258 C122.902304,25.5411385 123.512812,26.1768743 123.91646,27.0043524 C124.269652,27.7511009 124.446245,28.9267076 124.446245,30.5312079 L124.446245,38.5990789 C124.446245,39.4669218 124.24947,40.1177942 123.855913,40.5517157 C123.462357,40.9856371 122.942668,41.2025946 122.296831,41.2025946 C121.671177,41.2025946 121.159057,40.9831143 120.760454,40.5441473 C120.361852,40.1051803 120.162554,39.4568306 120.162554,38.5990789 L120.162554,31.651325 C120.162554,30.7632998 120.124712,30.0518811 120.049029,29.5170477 C119.973345,28.9822143 119.769001,28.5331628 119.435991,28.1698797 C119.102982,27.8065967 118.59843,27.6249579 117.92232,27.6249579 C117.377395,27.6249579 116.860229,27.7864146 116.370806,28.1093329 C115.881383,28.4322511 115.500446,28.8661661 115.227984,29.4110907 C114.925248,30.1073832 114.773882,31.3384907 114.773882,33.10445 Z M139.991655,33.8158758 L131.908648,33.8158758 C131.918739,34.7543571 132.107946,35.5818228 132.476275,36.2982977 C132.844603,37.0147726 133.334019,37.5546435 133.944536,37.9179266 C134.555054,38.2812097 135.228631,38.4628485 135.965288,38.4628485 C136.459757,38.4628485 136.911331,38.404825 137.320025,38.2887762 C137.728718,38.1727275 138.124792,37.9910886 138.508257,37.7438543 C138.891722,37.49662 139.244909,37.2317301 139.567827,36.9491766 C139.890746,36.6666231 140.309524,36.2831634 140.824175,35.798786 C141.03609,35.6171444 141.338821,35.526325 141.732378,35.526325 C142.156208,35.526325 142.499304,35.6423721 142.761675,35.8744696 C143.024046,36.1065671 143.15523,36.434526 143.15523,36.8583563 C143.15523,37.2317306 143.00891,37.6681682 142.716265,38.1676825 C142.42362,38.6671967 141.982137,39.1465213 141.391802,39.6056707 C140.801467,40.0648202 140.059775,40.4457571 139.166704,40.748493 C138.273633,41.0512289 137.24687,41.2025946 136.086382,41.2025946 C133.432397,41.2025946 131.368779,40.4457662 129.895464,38.9320868 C128.422149,37.4184073 127.685503,35.3648797 127.685503,32.7714422 C127.685503,31.5504075 127.867142,30.4176877 128.230425,29.3732489 C128.593708,28.32881 129.123488,27.4332298 129.81978,26.6864813 C130.516073,25.9397328 131.373812,25.367066 132.393023,24.9684637 C133.412233,24.5698615 134.542431,24.3705633 135.783648,24.3705633 C137.398239,24.3705633 138.783235,24.7111361 139.938677,25.3922918 C141.094119,26.0734476 141.959426,26.9538913 142.534624,28.0336493 C143.109822,29.1134073 143.397417,30.2133312 143.397417,31.3334539 C143.397417,32.3728472 143.099731,33.0464244 142.504351,33.3542059 C141.90897,33.6619874 141.071413,33.8158758 139.991655,33.8158758 Z M131.908648,31.4696844 L139.401323,31.4696844 C139.300411,30.0569169 138.919475,28.99988 138.258501,28.2985418 C137.597528,27.5972037 136.727175,27.2465399 135.647417,27.2465399 C134.618115,27.2465399 133.77299,27.6022492 133.112017,28.3136786 C132.451043,29.0251079 132.049924,30.0770993 131.908648,31.4696844 Z" id="Hire-me" fill="#FFFFFF"></path>
    </g>
</svg>