<?xml version="1.0" encoding="UTF-8"?>
<svg width="663px" height="519px" viewBox="0 0 663 519" version="1.1" xmlns="http://www.w3.org/2000/svg" xmlns:xlink="http://www.w3.org/1999/xlink">
    <!-- Generator: Sketch 48.2 (47327) - http://www.bohemiancoding.com/sketch -->
    <title>monitor</title>
    <desc>Created with Sketch.</desc>
    <defs></defs>
    <g id="Page-1" stroke="none" stroke-width="1" fill="none" fill-rule="evenodd">
        <g id="monitor">
            <g id="Page-1">
                <polygon id="Fill-1" fill="#D1D3D4" points="254.082 508.167 408.828 508.167 408.828 424.306 254.082 424.306"></polygon>
                <polygon id="Fill-2" fill="#FFFFFF" points="202.89 518.15 460.022 518.15 460.022 497.185 202.89 497.185"></polygon>
                <g id="Group-6" transform="translate(0.000000, 0.150000)">
                    <path d="M31.282,342.58 L631.628,342.58 L631.628,31.467 L31.282,31.467 L31.282,342.58 Z M662.912,24.982 C662.912,11.654 652.105,0.85 638.777,0.85 L24.134,0.85 C10.807,0.85 0,11.654 0,24.982 L0,372.242 L662.912,372.242 L662.912,24.982 Z" id="Fill-3" fill="#353938"></path>
                    <path d="M0,372.2422 L0,408.0062 C0,421.3342 10.807,432.1402 24.134,432.1402 L638.777,432.1402 C652.105,432.1402 662.912,421.3342 662.912,408.0062 L662.912,372.2422 L0,372.2422 Z" id="Fill-5" fill="#FFFFFF"></path>
                </g>
            </g>
        </g>
    </g>
</svg>