<?xml version="1.0" encoding="UTF-8"?>
<svg width="103px" height="125px" viewBox="0 0 103 125" version="1.1" xmlns="http://www.w3.org/2000/svg" xmlns:xlink="http://www.w3.org/1999/xlink">
    <!-- Generator: Sketch 48.2 (47327) - http://www.bohemiancoding.com/sketch -->
    <title>creative-brief</title>
    <desc>Created with Sketch.</desc>
    <defs></defs>
    <g id="Page-1" stroke="none" stroke-width="1" fill="none" fill-rule="evenodd">
        <g id="creative-brief">
            <g id="Page-1">
                <polygon id="Fill-1" fill="#1B75BB" points="9 99.667 71.333 99.667 71.333 9 9 9"></polygon>
                <path d="M0,-0.0001 L0,107.9999 L0.333,107.9999 L9,107.9999 L22,107.9999 L22,124.9999 L22.333,124.9999 L31,124.9999 L93.334,124.9999 L93.667,124.9999 L102.334,124.9999 L102.334,16.9999 L93.667,16.9999 L93.334,16.9999 L80.333,16.9999 L80.333,-0.0001 L0,-0.0001 Z M9,8.6669 L71.333,8.6669 L71.333,16.9999 L31,16.9999 L22.333,16.9999 L22,16.9999 L22,99.3329 L9,99.3329 L9,8.6669 Z M31,107.9999 L71.333,107.9999 L71.667,107.9999 L80.333,107.9999 L80.333,25.6669 L93.334,25.6669 L93.334,116.3329 L31,116.3329 L31,107.9999 Z M31,99.3329 L71.333,99.3329 L71.333,25.6669 L31,25.6669 L31,99.3329 Z" id="Fill-2" fill="#FFFFFF"></path>
                <polygon id="Fill-3" fill="#48CFAD" points="31 116.333 93.333 116.333 93.333 25.666 31 25.666"></polygon>
            </g>
        </g>
    </g>
</svg>