<?xml version="1.0" encoding="UTF-8"?>
<svg width="264px" height="211px" viewBox="0 0 264 211" version="1.1" xmlns="http://www.w3.org/2000/svg" xmlns:xlink="http://www.w3.org/1999/xlink">
    <!-- Generator: Sketch 48.2 (47327) - http://www.bohemiancoding.com/sketch -->
    <title>hearts</title>
    <desc>Created with Sketch.</desc>
    <defs></defs>
    <g id="Page-1" stroke="none" stroke-width="1" fill="none" fill-rule="evenodd">
        <g id="hearts">
            <g id="Page-1">
                <polygon id="Fill-1" fill="#AA2B6B" points="223.8831 76.4663 222.8781 76.4663 209.5581 76.4663 209.5581 89.7873 196.2371 89.7873 196.2371 103.1073 183.9221 103.1073 183.9221 89.7873 170.6011 89.7873 170.6011 76.4663 157.2801 76.4663 156.2751 76.4663 142.9551 76.4663 142.9551 89.7873 129.6341 89.7873 129.6341 103.1073 116.3141 103.1073 116.3141 116.4283 116.3141 117.4333 116.3141 129.7483 116.3141 130.7533 116.3141 144.0743 129.6341 144.0743 129.6341 157.3953 142.9551 157.3953 142.9551 170.7153 156.2751 170.7153 156.2751 184.0363 169.5961 184.0363 169.5961 197.3563 182.9171 197.3563 182.9171 210.6773 197.2421 210.6773 197.2421 197.3563 210.5631 197.3563 210.5631 184.0363 223.8831 184.0363 223.8831 170.7153 237.2041 170.7153 237.2041 157.3953 250.5241 157.3953 250.5241 144.0743 263.8451 144.0743 263.8451 130.7533 263.8451 129.7483 263.8451 117.4333 263.8451 116.4283 263.8451 103.1073 250.5241 103.1073 250.5241 89.7873 237.2041 89.7873 237.2041 76.4663"></polygon>
                <polygon id="Fill-2" fill="#E51675" points="224.1702 39.344 222.1712 39.344 208.9352 39.344 208.9352 52.58 195.6992 52.58 195.6992 65.817 184.4602 65.817 184.4602 52.58 171.2232 52.58 171.2232 39.344 157.9872 39.344 155.9892 39.344 142.7512 39.344 142.7512 52.58 129.5152 52.58 129.5152 65.817 116.2792 65.817 116.2792 79.054 116.2792 81.052 116.2792 92.29 116.2792 94.288 116.2792 107.525 129.5152 107.525 129.5152 120.762 142.7512 120.762 142.7512 133.998 155.9892 133.998 155.9892 147.234 169.2252 147.234 169.2252 160.471 182.4622 160.471 182.4622 173.708 197.6972 173.708 197.6972 160.471 210.9332 160.471 210.9332 147.234 224.1702 147.234 224.1702 133.998 237.4062 133.998 237.4062 120.762 250.6432 120.762 250.6432 107.525 263.8802 107.525 263.8802 65.817 250.6432 65.817 250.6432 52.58 237.4062 52.58 237.4062 39.344"></polygon>
                <polygon id="Fill-3" fill="#AA2B6B" points="65.2338 22.505 64.6248 22.505 56.5488 22.505 56.5488 30.581 48.4738 30.581 48.4738 38.655 41.0078 38.655 41.0078 30.581 32.9318 30.581 32.9318 22.505 24.8568 22.505 24.2478 22.505 16.1718 22.505 16.1718 30.581 8.0968 30.581 8.0968 38.655 0.0208 38.655 0.0208 46.731 0.0208 47.34 0.0208 54.807 0.0208 55.416 0.0208 63.492 8.0968 63.492 8.0968 71.568 16.1718 71.568 16.1718 79.642 24.2478 79.642 24.2478 87.718 32.3228 87.718 32.3228 95.793 40.3988 95.793 40.3988 103.869 49.0838 103.869 49.0838 95.793 57.1588 95.793 57.1588 87.718 65.2338 87.718 65.2338 79.642 73.3098 79.642 73.3098 71.568 81.3848 71.568 81.3848 63.492 89.4598 63.492 89.4598 55.416 89.4598 54.807 89.4598 47.34 89.4598 46.731 89.4598 38.655 81.3848 38.655 81.3848 30.581 73.3098 30.581 73.3098 22.505"></polygon>
                <polygon id="Fill-4" fill="#E51675" points="56.1717 -0.0004 56.1717 8.0246 48.1477 8.0246 48.1477 16.0496 41.3347 16.0496 41.3347 8.0246 33.3097 8.0246 33.3097 -0.0004 16.0487 -0.0004 16.0487 8.0246 8.0247 8.0246 8.0247 16.0496 -0.0003 16.0496 -0.0003 24.0736 -0.0003 25.2856 -0.0003 32.0976 -0.0003 33.3096 -0.0003 41.3336 8.0247 41.3336 8.0247 49.3586 16.0487 49.3586 16.0487 57.3826 24.0737 57.3826 24.0737 65.4076 32.0987 65.4076 32.0987 73.4326 40.1227 73.4326 40.1227 81.4566 49.3587 81.4566 49.3587 73.4326 57.3827 73.4326 57.3827 65.4076 65.4077 65.4076 65.4077 57.3826 73.4327 57.3826 73.4327 49.3586 81.4567 49.3586 81.4567 41.3336 89.4817 41.3336 89.4817 33.3096 89.4817 32.0976 89.4817 25.2856 89.4817 24.0736 89.4817 16.0496 81.4567 16.0496 81.4567 8.0246 73.4327 8.0246 73.4327 -0.0004"></polygon>
            </g>
        </g>
    </g>
</svg>