<?xml version="1.0" encoding="UTF-8"?>
<svg width="81px" height="108px" viewBox="0 0 81 108" version="1.1" xmlns="http://www.w3.org/2000/svg" xmlns:xlink="http://www.w3.org/1999/xlink">
    <!-- Generator: Sketch 48.2 (47327) - http://www.bohemiancoding.com/sketch -->
    <title>menu-of-services</title>
    <desc>Created with Sketch.</desc>
    <defs></defs>
    <g id="Page-1" stroke="none" stroke-width="1" fill="none" fill-rule="evenodd">
        <g id="menu-of-services">
            <g id="Page-1">
                <path d="M0,0 L0,108 L0.333,108 L9,108 L71.333,108 L71.667,108 L80.333,108 L80.333,0 L0,0 Z M9,99.333 L71.333,99.333 L71.333,8.667 L9,8.667 L9,99.333 Z" id="Fill-1" fill="#FFFFFF"></path>
                <polygon id="Fill-2" fill="#2F4858" points="9 99.333 71.333 99.333 71.333 8.666 9 8.666"></polygon>
                <polygon id="Fill-3" fill="#FFFFFF" points="17.403 39.54 37.653 39.54 37.653 23.54 17.403 23.54"></polygon>
                <polygon id="Fill-4" fill="#FFFFFF" points="42.404 39.54 62.654 39.54 62.654 23.54 42.404 23.54"></polygon>
                <polygon id="Fill-5" fill="#FFFFFF" points="17.403 76.207 37.653 76.207 37.653 60.207 17.403 60.207"></polygon>
                <polygon id="Fill-6" fill="#FFFFFF" points="42.404 76.207 62.654 76.207 62.654 60.207 42.404 60.207"></polygon>
                <polygon id="Fill-7" fill="#FFFFFF" points="17.292 48.46 37.792 48.46 37.792 43.377 17.292 43.377"></polygon>
                <polygon id="Fill-8" fill="#FFFFFF" points="42.542 48.46 63.042 48.46 63.042 43.377 42.542 43.377"></polygon>
                <polygon id="Fill-9" fill="#FFFFFF" points="17.292 84.46 37.792 84.46 37.792 79.377 17.292 79.377"></polygon>
                <polygon id="Fill-10" fill="#FFFFFF" points="42.542 84.46 63.042 84.46 63.042 79.377 42.542 79.377"></polygon>
            </g>
        </g>
    </g>
</svg>