<?xml version="1.0" encoding="UTF-8"?>
<svg width="284px" height="369px" viewBox="0 0 284 369" version="1.1" xmlns="http://www.w3.org/2000/svg" xmlns:xlink="http://www.w3.org/1999/xlink">
    <!-- Generator: Sketch 48.2 (47327) - http://www.bohemiancoding.com/sketch -->
    <title>smiling-people-2</title>
    <desc>Created with Sketch.</desc>
    <defs></defs>
    <g id="Page-1" stroke="none" stroke-width="1" fill="none" fill-rule="evenodd">
        <g id="smiling-people-2">
            <g id="Page-1" transform="translate(0.000000, -14.000000)">
                <polygon id="Fill-1" fill="#E51675" points="5.61913357 158.571849 5.61913357 182.337084 18.289769 182.337084 18.289769 234.722819 24.5801336 241.01524 27.9955451 247.244287 89.039769 250.566309 93.6372419 221.849727 94.9143177 174.92642 108.962152 171.859938 108.962152 151.672265 108.962152 145.347134 106.799296 145.347134 103.470726 140.684037 91.8493357 140.684037 90.2678051 137.170871 45.4638989 137.170871 41.3772563 137.170871 37.3999314 141.14912 18.5451841 143.239439 16.8574007 144.77268 11.1381444 150.650104"></polygon>
                <polygon id="Fill-2" fill="#FBE2CD" points="103.471032 49.5839681 24.0369166 49.5839681 24.0369166 112.639015 31.3162487 112.639015 31.3162487 121.58701 38.5955809 121.58701 38.5955809 128.993586 47.7905267 128.993586 47.7905267 137.170871 75.0923643 137.170871 75.0923643 128.993586 90.417274 128.993586 90.417274 121.58701 98.74483 121.58701 98.74483 112.639015 103.471032 112.639015"></polygon>
                <polygon id="Fill-3" fill="#FBE2CD" points="6.02984116 259.82964 25.0306859 259.82964 25.0306859 183.869814 6.02984116 183.869814"></polygon>
                <polygon id="Fill-4" fill="#1B75BB" points="27.9955451 369.647515 95.4016498 369.647515 95.4016498 247.243776 27.9955451 247.243776"></polygon>
                <polygon id="Fill-5" fill="#FBE2CD" points="95.4016498 259.82964 114.402495 259.82964 114.402495 172.626047 95.4016498 172.626047"></polygon>
                <polygon id="Fill-6" fill="#E3B50A" points="25.0306859 112.638504 33.6933466 112.638504 33.6933466 103.950139 25.0306859 103.950139"></polygon>
                <polygon id="Fill-7" fill="#E3B50A" points="41.3772563 96.2839335 41.3772563 55.3975069 99.6824079 55.3975069 99.6824079 48.2423823 106.763538 48.2423823 106.763538 29.949795 90.4353574 29.949795 90.4353574 22.6883657 74.2195596 22.6883657 74.2195596 30.2595097 57.7238267 30.2595097 57.7238267 22.6883657 49.5505415 22.6883657 49.5505415 30.865651 41.5264188 30.865651 41.5264188 39.1931939 33.2039711 39.1931939 33.2039711 31.3542438 25.0306859 31.3542438 25.0306859 47.2202216 17.8790614 47.2202216 17.8790614 55.3975069 9.70577617 55.3975069 9.70577617 78.1630693 15.5547834 78.1630693 15.5547834 97.3418698 25.0306859 97.3418698 25.0306859 79.9293629 33.2039711 79.9293629 33.2039711 96.2839335"></polygon>
                <polygon id="Fill-8" fill="#FFFFFF" points="81.7175271 88.5543546 99.0857581 88.5543546 99.0857581 72.1997839 81.7175271 72.1997839"></polygon>
                <polygon id="Fill-9" fill="#000000" points="1.53249097 78.9072022 9.70577617 78.9072022 9.70577617 55.3975069 1.53249097 55.3975069"></polygon>
                <polygon id="Stroke-10" stroke="#231F20" points="1.53249097 78.9072022 9.70577617 78.9072022 9.70577617 55.3975069 1.53249097 55.3975069"></polygon>
                <polygon id="Fill-12" fill="#000000" points="9.70577617 97.3060942 16.8574007 97.3060942 16.8574007 78.9072022 9.70577617 78.9072022"></polygon>
                <polygon id="Stroke-13" stroke="#231F20" points="9.70577617 97.3060942 16.8574007 97.3060942 16.8574007 78.9072022 9.70577617 78.9072022"></polygon>
                <polygon id="Fill-14" fill="#000000" points="16.8574007 112.638504 25.0306859 112.638504 25.0306859 97.3060942 16.8574007 97.3060942"></polygon>
                <polygon id="Stroke-15" stroke="#231F20" points="16.8574007 112.638504 25.0306859 112.638504 25.0306859 97.3060942 16.8574007 97.3060942"></polygon>
                <polygon id="Fill-16" fill="#000000" points="25.0306859 120.815789 33.2039711 120.815789 33.2039711 112.638504 25.0306859 112.638504"></polygon>
                <polygon id="Stroke-17" stroke="#231F20" points="25.0306859 120.815789 33.2039711 120.815789 33.2039711 112.638504 25.0306859 112.638504"></polygon>
                <polygon id="Fill-18" fill="#000000" points="33.2039711 128.993075 41.3772563 128.993075 41.3772563 120.815789 33.2039711 120.815789"></polygon>
                <polygon id="Stroke-19" stroke="#231F20" points="33.2039711 128.993075 41.3772563 128.993075 41.3772563 120.815789 33.2039711 120.815789"></polygon>
                <polygon id="Fill-20" fill="#000000" points="41.3772563 137.17036 49.5505415 137.17036 49.5505415 128.993075 41.3772563 128.993075"></polygon>
                <polygon id="Stroke-21" stroke="#231F20" points="41.3772563 137.17036 49.5505415 137.17036 49.5505415 128.993075 41.3772563 128.993075"></polygon>
                <polygon id="Fill-22" fill="#000000" points="9.70577617 55.3975069 17.8790614 55.3975069 17.8790614 47.2202216 9.70577617 47.2202216"></polygon>
                <polygon id="Stroke-23" stroke="#231F20" points="9.70577617 55.3975069 17.8790614 55.3975069 17.8790614 47.2202216 9.70577617 47.2202216"></polygon>
                <polygon id="Fill-24" fill="#000000" points="17.8790614 47.2202216 25.0306859 47.2202216 25.0306859 31.3542438 17.8790614 31.3542438"></polygon>
                <polygon id="Stroke-25" stroke="#231F20" points="17.8790614 47.2202216 25.0306859 47.2202216 25.0306859 31.3542438 17.8790614 31.3542438"></polygon>
                <polygon id="Fill-26" fill="#000000" points="25.0306859 31.3542438 33.6933466 31.3542438 33.6933466 22.6883657 25.0306859 22.6883657"></polygon>
                <polygon id="Stroke-27" stroke="#231F20" points="25.0306859 31.3542438 33.6933466 31.3542438 33.6933466 22.6883657 25.0306859 22.6883657"></polygon>
                <polygon id="Fill-28" fill="#000000" points="33.6923249 39.1921717 41.5264188 39.1921717 41.5264188 31.3542438 33.6923249 31.3542438"></polygon>
                <polygon id="Stroke-29" stroke="#231F20" points="33.6923249 39.1921717 41.5264188 39.1921717 41.5264188 31.3542438 33.6923249 31.3542438"></polygon>
                <polygon id="Fill-30" fill="#000000" points="41.5264188 31.3542438 50.1890794 31.3542438 50.1890794 22.6883657 41.5264188 22.6883657"></polygon>
                <polygon id="Stroke-31" stroke="#231F20" points="41.5264188 31.3542438 50.1890794 31.3542438 50.1890794 22.6883657 41.5264188 22.6883657"></polygon>
                <polygon id="Fill-32" fill="#000000" points="50.1890794 22.6883657 57.7238267 22.6883657 57.7238267 15.1499307 50.1890794 15.1499307"></polygon>
                <polygon id="Stroke-33" stroke="#231F20" points="50.1890794 22.6883657 57.7238267 22.6883657 57.7238267 15.1499307 50.1890794 15.1499307"></polygon>
                <polygon id="Fill-35" fill="#000000" points="57.7238267 30.865651 74.2195596 30.865651 74.2195596 22.6883657 57.7238267 22.6883657"></polygon>
                <polygon id="Stroke-36" stroke="#231F20" points="57.7238267 30.865651 74.2195596 30.865651 74.2195596 22.6883657 57.7238267 22.6883657"></polygon>
                <polygon id="Fill-37" fill="#000000" points="74.2195596 22.6883657 90.4169675 22.6883657 90.4169675 14.5110803 74.2195596 14.5110803"></polygon>
                <polygon id="Stroke-38" stroke="#231F20" points="74.2195596 22.6883657 90.4169675 22.6883657 90.4169675 14.5110803 74.2195596 14.5110803"></polygon>
                <polygon id="Fill-40" fill="#000000" points="90.4169675 30.865651 106.763538 30.865651 106.763538 22.6883657 90.4169675 22.6883657"></polygon>
                <polygon id="Stroke-41" stroke="#231F20" points="90.4169675 30.865651 106.763538 30.865651 106.763538 22.6883657 90.4169675 22.6883657"></polygon>
                <polygon id="Fill-42" fill="#000000" points="106.763538 47.2202216 114.936823 47.2202216 114.936823 30.865651 106.763538 30.865651"></polygon>
                <polygon id="Stroke-43" stroke="#231F20" points="106.763538 47.2202216 114.936823 47.2202216 114.936823 30.865651 106.763538 30.865651"></polygon>
                <path d="M98.7445235,88.1062393 L98.7445235,71.7526909 L98.7445235,88.1062393 Z" id="Fill-44" fill="#000000"></path>
                <path d="M98.74483,71.7520776 L98.74483,88.1066482" id="Stroke-45" stroke="#231F20"></path>
                <g id="Group-48" transform="translate(73.559567, 46.709141)">
                    <polyline id="Fill-46" fill="#000000" points="25.1852632 41.3975069 25.1852632 74.1066482 16.8577072 74.1066482 16.8577072 82.2839335 0.511136823 82.2839335 0.511136823 90.4612188 16.7075231 90.4612188 16.7075231 98.6385042 33.2400357 98.6385042 33.2400357 90.4254432 17.6597108 90.4254432 17.6597108 82.4382798 25.1852632 82.4382798 25.1852632 74.8783795 33.2042776 74.8783795 33.2042776 0.511080332 25.1852632 0.511080332 25.1852632 25.0429363"></polyline>
                    <polyline id="Stroke-47" stroke="#231F20" points="25.1852632 41.3975069 25.1852632 74.1066482 16.8577072 74.1066482 16.8577072 82.2839335 0.511136823 82.2839335 0.511136823 90.4612188 16.7075231 90.4612188 16.7075231 98.6385042 33.2400357 98.6385042 33.2400357 90.4254432 17.6597108 90.4254432 17.6597108 82.4382798 25.1852632 82.4382798 25.1852632 74.8783795 33.2042776 74.8783795 33.2042776 0.511080332 25.1852632 0.511080332 25.1852632 25.0429363"></polyline>
                </g>
                <polygon id="Fill-49" fill="#000000" points="57.7238267 118.547615 82.2436823 118.547615 82.2436823 112.638504 57.7238267 112.638504"></polygon>
                <polygon id="Stroke-50" stroke="#231F20" points="57.7238267 118.547615 82.2436823 118.547615 82.2436823 112.638504 57.7238267 112.638504"></polygon>
                <polygon id="Fill-51" fill="#000000" points="114.402495 259.82964 123.110108 259.82964 123.110108 243.475069 114.402495 243.475069"></polygon>
                <polygon id="Stroke-52" stroke="#231F20" points="114.402495 259.82964 123.110108 259.82964 123.110108 243.475069 114.402495 243.475069"></polygon>
                <path d="M106.799296,145.347952 L106.799296,169.645733 L98.5902527,169.645733 L98.5902527,161.701501 L90.4169675,161.701501 L90.4169675,243.474354 L25.0306859,243.474354 L25.0306859,251.651639 L25.0306859,259.829947 L8.68411552,259.829947 L8.68411552,268.007232 L25.0306859,268.007232 L25.0306859,366.134656 L25.0306859,375.269706 L25.0306859,382.488204 L106.763538,382.488204 L114.936823,382.488204 L114.936823,374.311941 L106.763538,374.311941 L106.763538,366.134656 L98.4676534,366.134656 L98.4676534,268.114559 L114.401473,268.114559 L114.401473,259.829947 L98.5902527,259.829947 L98.5902527,178.056071 L106.799296,178.056071 L106.799296,243.474354 L114.401473,243.474354 L114.401473,145.347952 L106.799296,145.347952 Z M33.2039711,251.651639 L90.4169675,251.651639 L90.4169675,259.829947 L90.4169675,268.114559 L90.4169675,366.134656 L65.8971119,366.134656 L65.8971119,292.539088 L74.0703971,292.539088 L74.0703971,275.874802 L81.901426,275.874802 L81.901426,268.007232 L65.8971119,268.007232 L65.8971119,275.874802 L65.8971119,284.361802 L57.7238267,284.361802 L57.7238267,366.134656 L33.2039711,366.134656 L33.2039711,251.651639 Z" id="Fill-53" fill="#000000"></path>
                <path d="M90.4169675,366.134349 L65.8971119,366.134349 L65.8971119,292.538781 L74.0703971,292.538781 L74.0703971,275.874496 L81.901426,275.874496 L81.901426,268.006925 L65.8971119,268.006925 L65.8971119,275.874496 L65.8971119,284.361496 L57.7238267,284.361496 L57.7238267,366.134349 L33.2039711,366.134349 L33.2039711,251.652355 L90.4169675,251.652355 L90.4169675,259.82964 L90.4169675,268.114252 L90.4169675,366.134349 Z M114.402495,268.114252 L114.402495,259.82964 L98.5902527,259.82964 L98.5902527,178.056787 L106.799296,178.056787 L106.799296,243.475069 L114.402495,243.475069 L114.402495,145.347645 L106.799296,145.347645 L106.799296,169.645427 L98.5902527,169.645427 L98.5902527,161.702216 L90.4169675,161.702216 L90.4169675,243.475069 L25.0306859,243.475069 L25.0306859,251.652355 L25.0306859,259.82964 L8.68411552,259.82964 L8.68411552,268.006925 L25.0306859,268.006925 L25.0306859,366.134349 L25.0306859,375.270421 L25.0306859,382.48892 L106.763538,382.48892 L114.936823,382.48892 L114.936823,374.311634 L106.763538,374.311634 L106.763538,366.134349 L98.4676534,366.134349 L98.4676534,268.114252 L114.402495,268.114252 Z" id="Stroke-54" stroke="#231F20"></path>
                <polygon id="Fill-56" fill="#000000" points="16.8570942 137.170565 16.8570942 144.773396 8.10861408 144.773396 8.10861408 153.525135 0.511545487 153.525135 0.511545487 259.829844 8.68380903 259.829844 8.68380903 186.2169 16.8570942 186.2169 16.8570942 243.475274 25.0303794 243.475274 25.0303794 186.2169 25.0303794 178.056991 25.0303794 169.645631 16.8570942 169.645631 16.8570942 178.056991 8.68380903 178.056991 8.68380903 153.525135 16.8570942 153.525135 16.8570942 145.34785 41.3769498 145.34785 41.3769498 137.170565"></polygon>
                <polygon id="Stroke-57" stroke="#231F20" points="16.8574007 186.216082 16.8574007 243.475478 25.0306859 243.475478 25.0306859 186.216082 25.0306859 178.057196 25.0306859 169.645835 16.8574007 169.645835 16.8574007 178.057196 8.68411552 178.057196 8.68411552 153.52534 16.8574007 153.52534 16.8574007 145.348054 41.3772563 145.348054 41.3772563 137.170769 16.8574007 137.170769 16.8574007 144.772578 8.10892058 144.772578 8.10892058 153.52534 0.510830325 153.52534 0.510830325 259.830049 8.68411552 259.830049 8.68411552 186.216082"></polygon>
                <polygon id="Fill-59" fill="#FFFFFF" points="49.0243863 88.8957562 66.3926173 88.8957562 66.3926173 69.4747036 49.0243863 69.4747036"></polygon>
                <polygon id="Fill-60" fill="#000000" points="49.5505415 71.7520776 65.8971119 71.7520776 65.8971119 65.7785706 49.5505415 65.7785706"></polygon>
                <polygon id="Stroke-61" stroke="#231F20" points="49.5505415 71.7520776 65.8971119 71.7520776 65.8971119 65.7785706 49.5505415 65.7785706"></polygon>
                <polygon id="Fill-62" fill="#000000" points="82.2283574 71.7520776 98.0640975 71.7520776 98.0640975 65.7785706 82.2283574 65.7785706"></polygon>
                <polygon id="Stroke-63" stroke="#231F20" points="82.2283574 71.7520776 98.0640975 71.7520776 98.0640975 65.7785706 82.2283574 65.7785706"></polygon>
                <polygon id="Fill-64" fill="#000000" points="57.7994296 84.8071136 66.3926173 84.8071136 66.3926173 76.4785485 57.7994296 76.4785485"></polygon>
                <polygon id="Fill-65" fill="#000000" points="90.4016426 84.6353906 98.0640975 84.6353906 98.0640975 76.9896288 90.4016426 76.9896288"></polygon>
                <polygon id="Fill-67" fill="#48CFAD" points="165.241555 158.252424 165.241555 182.017659 177.91219 182.017659 177.91219 234.403393 184.202555 240.695814 187.617966 246.924861 251.728194 259.44633 253.260684 221.530302 254.53776 174.606994 268.585594 171.540512 268.585594 151.352839 268.585594 145.027709 266.422739 145.027709 263.094168 140.364612 251.472778 140.364612 249.890226 136.851446 205.08632 136.851446 200.999677 136.851446 197.022352 140.829695 178.167605 142.920014 176.479822 144.453255 170.760565 150.330679"></polygon>
                <polygon id="Fill-68" fill="#B27239" points="165.652058 259.509704 184.652903 259.509704 184.652903 183.549878 165.652058 183.549878"></polygon>
                <polygon id="Fill-69" fill="#B27239" points="187.618783 382.105609 255.024888 382.105609 255.024888 259.70187 187.618783 259.70187"></polygon>
                <polygon id="Fill-70" fill="#B27239" points="255.023866 259.509704 274.024711 259.509704 274.024711 172.306111 255.023866 172.306111"></polygon>
                <polygon id="Fill-71" fill="#B27239" points="183.65944 49.2645429 183.65944 112.31959 190.938772 112.31959 190.938772 121.267584 198.218104 121.267584 198.218104 128.674161 207.41305 128.674161 207.41305 136.851446 234.714887 136.851446 234.714887 128.674161 250.039797 128.674161 250.039797 121.267584 258.366331 121.267584 258.366331 112.31959 263.093555 112.31959 263.093555 49.2645429"></polygon>
                <polygon id="Fill-72" fill="#FFFFFF" points="241.339744 92.3261274 258.707975 92.3261274 258.707975 80.2472548 241.339744 80.2472548"></polygon>
                <polygon id="Fill-73" fill="#000000" points="250.023859 29.9078864 266.37043 29.9078864 266.37043 22.3694515 250.023859 22.3694515"></polygon>
                <polygon id="Fill-74" fill="#000000" points="266.37043 47.859072 273.905177 47.859072 273.905177 29.5225319 266.37043 29.5225319"></polygon>
                <polygon id="Fill-75" fill="#000000" points="268.58539 76.4795706 276.120137 76.4795706 276.120137 55.0765485 268.58539 55.0765485"></polygon>
                <polygon id="Fill-76" fill="#000000" points="258.707975 55.3975069 273.905177 55.3975069 273.905177 47.859072 258.707975 47.859072"></polygon>
                <polygon id="Fill-77" fill="#000000" points="233.848928 22.3684294 250.126025 22.3684294 250.126025 14.8299945 233.848928 14.8299945"></polygon>
                <polygon id="Fill-78" fill="#000000" points="175.741978 138.884524 186.122051 138.884524 186.122051 122.668967 175.741978 122.668967"></polygon>
                <polygon id="Fill-79" fill="#000000" points="168.94487 77.67141 176.479617 77.67141 176.479617 55.0765485 168.94487 55.0765485"></polygon>
                <polygon id="Fill-80" fill="#000000" points="174.819419 124.39233 182.354166 124.39233 182.354166 77.6724321 174.819419 77.6724321"></polygon>
                <polygon id="Fill-81" fill="#000000" points="176.479617 56.3787812 184.995159 56.3787812 184.995159 39.1073324 176.479617 39.1073324"></polygon>
                <polygon id="Fill-82" fill="#000000" points="184.638599 39.6817867 201.598166 39.6817867 201.598166 30.4823407 184.638599 30.4823407"></polygon>
                <polygon id="Fill-83" fill="#000000" points="201.241606 30.9300471 234.206509 30.9300471 234.206509 23.3916122 201.241606 23.3916122"></polygon>
                <polygon id="Fill-84" fill="#000000" points="260.028982 145.411019 268.292173 145.411019 268.292173 136.44667 260.028982 136.44667"></polygon>
                <polygon id="Fill-85" fill="#000000" points="264.52531 124.777684 272.060058 124.777684 272.060058 112.31959 264.52531 112.31959"></polygon>
                <polygon id="Fill-86" fill="#000000" points="260.757426 136.851446 268.292173 136.851446 268.292173 124.39233 260.757426 124.39233"></polygon>
                <polygon id="Fill-87" fill="#000000" points="263.093964 112.31959 270.628711 112.31959 270.628711 76.4795706 263.093964 76.4795706"></polygon>
                <polygon id="Fill-88" fill="#FDCA00" points="251.879706 300.182601 189.490977 300.182601 189.490977 247.180504 251.879706 255.13087"></polygon>
                <polygon id="Fill-89" fill="#000000" points="273.833661 259.510726 282.541274 259.510726 282.541274 243.156155 273.833661 243.156155"></polygon>
                <polygon id="Stroke-90" stroke="#231F20" points="273.833661 259.510726 282.541274 259.510726 282.541274 243.156155 273.833661 243.156155"></polygon>
                <path d="M266.230462,145.027811 L266.230462,169.326615 L258.021419,169.326615 L258.021419,161.382382 L249.849155,161.382382 L249.849155,255.421163 L184.462874,243.155235 L184.462874,251.33252 L184.462874,259.509806 L168.115282,259.509806 L168.115282,267.688113 L184.462874,267.688113 L184.462874,365.814515 L184.462874,374.950587 L184.462874,382.169086 L266.194704,382.169086 L274.367989,382.169086 L274.367989,373.9918 L266.194704,373.9918 L266.194704,365.814515 L257.899841,365.814515 L257.899841,267.79544 L273.833661,267.79544 L273.833661,259.509806 L258.021419,259.509806 L258.021419,177.736953 L266.230462,177.736953 L266.230462,243.155235 L273.833661,243.155235 L273.833661,145.027811 L266.230462,145.027811 Z M192.636159,251.33252 L249.849155,263.598448 L249.849155,267.79544 L249.849155,365.814515 L225.328278,365.814515 L225.328278,299.28821 L217.156014,299.28821 L217.156014,365.814515 L192.636159,365.814515 L192.636159,251.33252 Z" id="Fill-92" fill="#000000"></path>
                <path d="M249.848338,365.814924 L225.328482,365.814924 L225.328482,299.287597 L217.156219,299.287597 L217.156219,365.814924 L192.636363,365.814924 L192.636363,251.332929 L249.848338,263.598857 L249.848338,259.510215 L249.848338,267.794827 L249.848338,365.814924 Z M273.833865,267.794827 L273.833865,259.510215 L258.021623,259.510215 L258.021623,177.737361 L266.230666,177.737361 L266.230666,243.155644 L273.833865,243.155644 L273.833865,145.02822 L266.230666,145.02822 L266.230666,169.326001 L258.021623,169.326001 L258.021623,161.382791 L249.848338,161.382791 L249.848338,255.421572 L184.463078,243.155644 L184.463078,251.332929 L184.463078,259.510215 L168.116508,259.510215 L168.116508,267.6875 L184.463078,267.6875 L184.463078,365.814924 L184.463078,374.950996 L184.463078,382.169494 L266.194908,382.169494 L274.368194,382.169494 L274.368194,373.992209 L266.194908,373.992209 L266.194908,365.814924 L257.900045,365.814924 L257.900045,267.794827 L273.833865,267.794827 Z" id="Stroke-93" stroke="#231F20"></path>
                <polygon id="Fill-95" fill="#000000" points="176.289282 185.896657 176.289282 243.156053 184.462567 243.156053 184.462567 185.896657 184.462567 177.73777 184.462567 169.32641 176.289282 169.32641 176.289282 177.73777 168.115997 177.73777 168.115997 153.205914 176.289282 153.205914 176.289282 145.028629 200.809138 145.028629 200.809138 136.851344 176.289282 136.851344 176.289282 144.453153 167.540802 144.453153 167.540802 153.205914 159.942712 153.205914 159.942712 259.510624 168.115997 259.510624 168.115997 185.896657"></polygon>
                <polygon id="Stroke-96" stroke="#231F20" points="176.289282 185.896657 176.289282 243.156053 184.462567 243.156053 184.462567 185.896657 184.462567 177.73777 184.462567 169.32641 176.289282 169.32641 176.289282 177.73777 168.115997 177.73777 168.115997 153.205914 176.289282 153.205914 176.289282 145.028629 200.809138 145.028629 200.809138 136.851344 176.289282 136.851344 176.289282 144.453153 167.540802 144.453153 167.540802 153.205914 159.942712 153.205914 159.942712 259.510624 168.115997 259.510624 168.115997 185.896657"></polygon>
                <polygon id="Fill-97" fill="#FFFFFF" points="208.646603 92.6675291 226.014834 92.6675291 226.014834 80.2472548 208.646603 80.2472548"></polygon>
                <polygon id="Fill-98" fill="#3B2314" points="258.366842 121.267993 250.040308 121.267993 250.040308 128.673547 234.715398 128.673547 234.715398 137.484572 249.890124 137.484572 249.890124 148.372628 252.835571 148.372628 252.835571 157.912453 258.708077 157.912453 258.708077 148.372628 261.406283 148.372628 261.406283 136.850833 261.002727 136.850833 261.002727 134.093043 261.002727 128.673547 261.002727 124.901775 264.524391 124.901775 264.524391 112.318977 258.366842 112.318977"></polygon>
                <polygon id="Fill-99" fill="#3B2314" points="263.094066 55.0780817 263.094066 49.265054 259.304727 49.265054 259.304727 47.9229571 266.386878 47.9229571 266.386878 29.6303698 250.057676 29.6303698 250.057676 22.3689404 233.8429 22.3689404 233.8429 29.9400845 217.346145 29.9400845 201.149759 30.5462258 201.149759 38.8737687 184.653005 39.2121039 184.653005 46.9007964 184.653005 55.0780817 176.479719 55.0780817 176.479719 77.843644 182.329748 77.843644 182.329748 92.0997188 182.304207 92.0997188 182.304207 124.585007 184.653005 124.585007 184.653005 137.484675 184.653005 148.371708 188.983824 148.371708 188.983824 159.956877 197.369615 159.956877 197.369615 148.371708 197.665896 148.371708 197.665896 137.484675 197.665896 136.850935 208.435221 136.850935 208.435221 127.247735 198.687557 127.247735 198.687557 121.268096 192.279701 121.268096 192.279701 112.319079 193.315665 112.319079 193.315665 103.630713 190.939283 103.630713 190.939283 94.537572 192.82629 94.537572 192.82629 95.9645083 200.999575 95.9645083 200.999575 79.9073864 204.136073 79.9073864 204.136073 92.0997188 209.755207 92.0997188 209.755207 75.4568989 215.37434 75.4568989 215.37434 66.8329294 221.321427 66.8329294 221.321427 55.0780817 246.364373 55.0780817 246.364373 58.0811898 254.72973 58.0811898 254.72973 69.1552784 258.911387 69.1552784 258.911387 76.4790596 261.446127 76.4790596 263.094066 76.4790596 268.585492 76.4790596 268.585492 55.0780817"></polygon>
                <polygon id="Fill-100" fill="#000000" points="218.54956 90.6804488 226.432693 90.6804488 226.432693 82.8098116 218.54956 82.8098116"></polygon>
                <polygon id="Fill-101" fill="#000000" points="251.028152 90.6804488 258.911285 90.6804488 258.911285 82.8098116 251.028152 82.8098116"></polygon>
                <polygon id="Fill-102" fill="#3B2314" points="183.658827 103.971604 209.755105 103.971604 209.755105 77.6724321 183.658827 77.6724321"></polygon>
                <polygon id="Fill-103" fill="#3B2314" points="187.618783 121.817507 202.943693 121.817507 202.943693 101.394737 187.618783 101.394737"></polygon>
                <polygon id="Fill-104" fill="#000000" points="226.262995 73.5637551 209.715158 73.868359 209.796891 78.837082 226.343706 78.5335003"></polygon>
                <polygon id="Fill-105" fill="#000000" points="258.881657 73.6162942 241.285596 73.9372526 241.366307 78.9069978 258.962368 78.5860393"></polygon>
                <polygon id="Fill-106" fill="#000000" points="51.9555307 113.149584 58.0436065 113.149584 58.0436065 104.972299 51.9555307 104.972299"></polygon>
                <polygon id="Stroke-107" stroke="#231F20" points="51.9555307 113.149584 58.0436065 113.149584 58.0436065 104.972299 51.9555307 104.972299"></polygon>
                <polygon id="Fill-108" fill="#000000" points="81.7175271 113.149584 87.3509639 113.149584 87.3509639 104.972299 81.7175271 104.972299"></polygon>
                <polygon id="Stroke-109" stroke="#231F20" points="81.7175271 113.149584 87.3509639 113.149584 87.3509639 104.972299 81.7175271 104.972299"></polygon>
                <polygon id="Fill-110" fill="#000000" points="222.785365 118.547615 247.30522 118.547615 247.30522 112.638504 222.785365 112.638504"></polygon>
                <polygon id="Stroke-111" stroke="#231F20" points="222.785365 118.547615 247.30522 118.547615 247.30522 112.638504 222.785365 112.638504"></polygon>
                <polygon id="Fill-112" fill="#000000" points="217.017069 113.149584 223.105144 113.149584 223.105144 104.972299 217.017069 104.972299"></polygon>
                <polygon id="Stroke-113" stroke="#231F20" points="217.017069 113.149584 223.105144 113.149584 223.105144 104.972299 217.017069 104.972299"></polygon>
                <polygon id="Fill-114" fill="#000000" points="246.779065 113.149584 252.412502 113.149584 252.412502 104.972299 246.779065 104.972299"></polygon>
                <polygon id="Stroke-115" stroke="#231F20" points="246.779065 113.149584 252.412502 113.149584 252.412502 104.972299 246.779065 104.972299"></polygon>
            </g>
        </g>
    </g>
</svg>